<svg width="1018" height="398" viewBox="0 0 1018 398" fill="none" xmlns="http://www.w3.org/2000/svg">
<path d="M28.93 47H4.62C3.92333 47 3.41 46.8533 3.08 46.56C2.78667 46.23 2.64 45.7167 2.64 45.02V38.365C2.64 37.6683 2.78667 37.1733 3.08 36.88C3.41 36.55 3.92333 36.385 4.62 36.385H10.78V18.015H5.72C5.02333 18.015 4.51 17.8683 4.18 17.575C3.88667 17.245 3.74 16.7317 3.74 16.035V9.38C3.74 8.68333 3.88667 8.18833 4.18 7.895C4.51 7.565 5.02333 7.4 5.72 7.4H21.67C22.3667 7.4 22.8617 7.565 23.155 7.895C23.485 8.18833 23.65 8.68333 23.65 9.38V36.385H28.93C29.6267 36.385 30.1217 36.55 30.415 36.88C30.745 37.1733 30.91 37.6683 30.91 38.365V45.02C30.91 45.7167 30.745 46.23 30.415 46.56C30.1217 46.8533 29.6267 47 28.93 47ZM70.6522 32.92V38.255C70.6522 39.685 70.3772 40.9867 69.8272 42.16C69.3139 43.3333 68.4156 44.3417 67.1322 45.185C65.8489 46.0283 64.1072 46.67 61.9072 47.11C59.7439 47.5867 57.0122 47.825 53.7122 47.825C50.4122 47.825 47.6622 47.5867 45.4622 47.11C43.2622 46.67 41.5206 46.0283 40.2372 45.185C38.9539 44.3417 38.0372 43.3333 37.4872 42.16C36.9739 40.9867 36.7172 39.685 36.7172 38.255V32.92C36.7172 30.3533 37.2672 28.3733 38.3672 26.98C39.5039 25.5867 40.8972 24.725 42.5472 24.395C41.3372 23.8817 40.4939 23.1117 40.0172 22.085C39.5406 21.0583 39.3022 19.8483 39.3022 18.455V15.265C39.3022 13.9083 39.5406 12.6983 40.0172 11.635C40.4939 10.5717 41.2822 9.67333 42.3822 8.94C43.4822 8.17 44.9672 7.58333 46.8372 7.18C48.7072 6.77667 51.0172 6.575 53.7672 6.575C56.5172 6.575 58.8089 6.77667 60.6422 7.18C62.5122 7.58333 63.9789 8.17 65.0422 8.94C66.1422 9.67333 66.9122 10.5717 67.3522 11.635C67.8289 12.6983 68.0672 13.9083 68.0672 15.265V18.455C68.0672 19.8483 67.8289 21.0583 67.3522 22.085C66.8756 23.1117 66.0322 23.8817 64.8222 24.395C66.4722 24.725 67.8472 25.5867 68.9472 26.98C70.0839 28.3733 70.6522 30.3533 70.6522 32.92ZM50.2472 20.6C50.2472 21.1867 50.4306 21.6817 50.7972 22.085C51.2006 22.4517 52.1722 22.635 53.7122 22.635C55.2889 22.635 56.2422 22.4517 56.5722 22.085C56.9389 21.6817 57.1222 21.1867 57.1222 20.6V18.18C57.1222 17.63 56.9389 17.1717 56.5722 16.805C56.2422 16.4017 55.2889 16.2 53.7122 16.2C52.1722 16.2 51.2006 16.4017 50.7972 16.805C50.4306 17.1717 50.2472 17.63 50.2472 18.18V20.6ZM48.8722 36.165C48.8722 36.7517 49.1839 37.2467 49.8072 37.65C50.4306 38.0167 51.7322 38.2 53.7122 38.2C55.6922 38.2 56.9756 38.0167 57.5622 37.65C58.1856 37.2467 58.4972 36.7517 58.4972 36.165V33.25C58.4972 32.7 58.1856 32.2417 57.5622 31.875C56.9756 31.4717 55.6922 31.27 53.7122 31.27C51.7322 31.27 50.4306 31.4717 49.8072 31.875C49.1839 32.2417 48.8722 32.7 48.8722 33.25V36.165ZM96.8288 47H87.9188C87.2221 47 86.7088 46.8533 86.3788 46.56C86.0855 46.23 85.9388 45.7167 85.9388 45.02V18.015H77.8538C77.1571 18.015 76.6438 17.8683 76.3138 17.575C76.0205 17.245 75.8738 16.7317 75.8738 16.035V9.38C75.8738 8.68333 76.0205 8.18833 76.3138 7.895C76.6438 7.565 77.1571 7.4 77.8538 7.4H106.894C107.59 7.4 108.085 7.565 108.379 7.895C108.709 8.18833 108.874 8.68333 108.874 9.38V16.035C108.874 16.7317 108.709 17.245 108.379 17.575C108.085 17.8683 107.59 18.015 106.894 18.015H98.8088V45.02C98.8088 45.7167 98.6438 46.23 98.3138 46.56C98.0205 46.8533 97.5255 47 96.8288 47ZM125.828 47H117.303C116.606 47 116.093 46.8533 115.763 46.56C115.469 46.23 115.323 45.7167 115.323 45.02V9.38C115.323 8.68333 115.469 8.18833 115.763 7.895C116.093 7.565 116.606 7.4 117.303 7.4H125.828C126.524 7.4 127.019 7.565 127.313 7.895C127.643 8.18833 127.808 8.68333 127.808 9.38V21.315H136.993V9.38C136.993 8.68333 137.139 8.18833 137.433 7.895C137.763 7.565 138.276 7.4 138.973 7.4H147.498C148.194 7.4 148.689 7.565 148.983 7.895C149.313 8.18833 149.478 8.68333 149.478 9.38V45.02C149.478 45.7167 149.313 46.23 148.983 46.56C148.689 46.8533 148.194 47 147.498 47H138.973C138.276 47 137.763 46.8533 137.433 46.56C137.139 46.23 136.993 45.7167 136.993 45.02V32.81H127.808V45.02C127.808 45.7167 127.643 46.23 127.313 46.56C127.019 46.8533 126.524 47 125.828 47Z" transform="translate(226 -4) scale(2)" fill="white"/>
<path d="M7.92 8.76L6.792 12.408H10.56L9.432 8.76C9.368 8.616 9.296 8.512 9.216 8.448C9.152 8.384 9.072 8.352 8.976 8.352H8.376C8.28 8.352 8.192 8.384 8.112 8.448C8.048 8.512 7.984 8.616 7.92 8.76ZM6.552 20.136C6.552 20.44 6.48 20.664 6.336 20.808C6.208 20.936 5.992 21 5.688 21H2.16C1.856 21 1.632 20.936 1.488 20.808C1.36 20.664 1.296 20.44 1.296 20.136V13.8C1.296 13.32 1.368 12.768 1.512 12.144C1.672 11.52 1.912 10.792 2.232 9.96L4.32 4.512C4.416 4.24 4.56 4.04 4.752 3.912C4.96 3.784 5.224 3.72 5.544 3.72H12C12.304 3.72 12.552 3.784 12.744 3.912C12.952 4.04 13.104 4.24 13.2 4.512L15.288 9.96C15.608 10.792 15.84 11.52 15.984 12.144C16.144 12.768 16.224 13.32 16.224 13.8V20.136C16.224 20.44 16.152 20.664 16.008 20.808C15.88 20.936 15.664 21 15.36 21H11.736C11.416 21 11.176 20.936 11.016 20.808C10.872 20.664 10.8 20.44 10.8 20.136V16.776H6.552V20.136ZM33.8992 16.464C33.8992 17.2 33.7872 17.872 33.5632 18.48C33.3552 19.072 32.9712 19.584 32.4113 20.016C31.8673 20.432 31.1153 20.76 30.1553 21C29.1953 21.24 27.9712 21.36 26.4832 21.36C24.9952 21.36 23.7713 21.24 22.8112 21C21.8512 20.76 21.0912 20.432 20.5312 20.016C19.9872 19.584 19.6032 19.072 19.3792 18.48C19.1713 17.872 19.0673 17.2 19.0673 16.464V4.584C19.0673 4.28 19.1313 4.064 19.2592 3.936C19.4032 3.792 19.6273 3.72 19.9313 3.72H23.6992C24.0032 3.72 24.2192 3.792 24.3473 3.936C24.4913 4.064 24.5633 4.28 24.5633 4.584V15.528C24.5633 15.848 24.6833 16.12 24.9232 16.344C25.1633 16.552 25.6993 16.656 26.5312 16.656C27.3793 16.656 27.9232 16.552 28.1632 16.344C28.4032 16.12 28.5233 15.848 28.5233 15.528V4.584C28.5233 4.28 28.5872 4.064 28.7152 3.936C28.8592 3.792 29.0832 3.72 29.3872 3.72H33.0353C33.3393 3.72 33.5553 3.792 33.6832 3.936C33.8272 4.064 33.8992 4.28 33.8992 4.584V16.464ZM50.2935 21H42.7335C40.7335 21 39.2455 20.6 38.2695 19.8C37.3095 19 36.8295 17.768 36.8295 16.104V8.616C36.8295 6.952 37.3095 5.72 38.2695 4.92C39.2455 4.12 40.7335 3.72 42.7335 3.72H48.7335C49.0375 3.72 49.2535 3.792 49.3815 3.936C49.5255 4.064 49.5975 4.28 49.5975 4.584V7.488C49.5975 7.792 49.5255 8.016 49.3815 8.16C49.2535 8.288 49.0375 8.352 48.7335 8.352H43.7415C43.2455 8.352 42.8775 8.456 42.6375 8.664C42.3975 8.856 42.2775 9.152 42.2775 9.552V15.288C42.2775 15.688 42.3655 15.984 42.5415 16.176C42.7335 16.368 43.0135 16.464 43.3815 16.464H45.7095V12.72C45.7095 12.416 45.7735 12.2 45.9015 12.072C46.0455 11.928 46.2695 11.856 46.5735 11.856H50.2935C50.5975 11.856 50.8135 11.928 50.9415 12.072C51.0855 12.2 51.1575 12.416 51.1575 12.72V20.136C51.1575 20.44 51.0855 20.664 50.9415 20.808C50.8135 20.936 50.5975 21 50.2935 21ZM68.7977 16.464C68.7977 17.2 68.6857 17.872 68.4617 18.48C68.2537 19.072 67.8697 19.584 67.3097 20.016C66.7657 20.432 66.0137 20.76 65.0537 21C64.0937 21.24 62.8697 21.36 61.3817 21.36C59.8937 21.36 58.6697 21.24 57.7097 21C56.7497 20.76 55.9897 20.432 55.4297 20.016C54.8857 19.584 54.5017 19.072 54.2777 18.48C54.0697 17.872 53.9657 17.2 53.9657 16.464V4.584C53.9657 4.28 54.0297 4.064 54.1577 3.936C54.3017 3.792 54.5257 3.72 54.8297 3.72H58.5977C58.9017 3.72 59.1177 3.792 59.2457 3.936C59.3897 4.064 59.4617 4.28 59.4617 4.584V15.528C59.4617 15.848 59.5817 16.12 59.8217 16.344C60.0617 16.552 60.5977 16.656 61.4297 16.656C62.2777 16.656 62.8217 16.552 63.0617 16.344C63.3017 16.12 63.4217 15.848 63.4217 15.528V4.584C63.4217 4.28 63.4857 4.064 63.6137 3.936C63.7577 3.792 63.9817 3.72 64.2857 3.72H67.9337C68.2377 3.72 68.4537 3.792 68.5817 3.936C68.7257 4.064 68.7977 4.28 68.7977 4.584V16.464ZM80.0079 21H72.4239C72.1199 21 71.8959 20.936 71.7519 20.808C71.6239 20.664 71.5599 20.44 71.5599 20.136V17.328C71.5599 17.024 71.6239 16.808 71.7519 16.68C71.8959 16.536 72.1199 16.464 72.4239 16.464H78.8799C79.0879 16.464 79.2399 16.4 79.3359 16.272C79.4479 16.128 79.5039 15.96 79.5039 15.768C79.5039 15.496 79.4479 15.296 79.3359 15.168C79.2399 15.04 79.0879 14.968 78.8799 14.952L75.2799 14.448C74.1599 14.288 73.2559 13.92 72.5679 13.344C71.8959 12.768 71.5599 11.808 71.5599 10.464V7.944C71.5599 6.584 71.9999 5.544 72.8799 4.824C73.7599 4.088 74.9759 3.72 76.5279 3.72H83.2479C83.5519 3.72 83.7679 3.792 83.8959 3.936C84.0399 4.064 84.1119 4.28 84.1119 4.584V7.44C84.1119 7.744 84.0399 7.968 83.8959 8.112C83.7679 8.24 83.5519 8.304 83.2479 8.304H77.6559C77.4479 8.304 77.2879 8.376 77.1759 8.52C77.0639 8.648 77.0079 8.816 77.0079 9.024C77.0079 9.232 77.0639 9.408 77.1759 9.552C77.2879 9.696 77.4479 9.776 77.6559 9.792L81.2319 10.272C82.3519 10.432 83.2559 10.8 83.9439 11.376C84.6319 11.952 84.9759 12.912 84.9759 14.256V16.776C84.9759 18.136 84.5279 19.184 83.6319 19.92C82.7519 20.64 81.5439 21 80.0079 21ZM95.5269 21H91.6389C91.3349 21 91.1109 20.936 90.9669 20.808C90.8389 20.664 90.7749 20.44 90.7749 20.136V8.352H87.2469C86.9429 8.352 86.7189 8.288 86.5749 8.16C86.4469 8.016 86.3829 7.792 86.3829 7.488V4.584C86.3829 4.28 86.4469 4.064 86.5749 3.936C86.7189 3.792 86.9429 3.72 87.2469 3.72H99.9189C100.223 3.72 100.439 3.792 100.567 3.936C100.711 4.064 100.783 4.28 100.783 4.584V7.488C100.783 7.792 100.711 8.016 100.567 8.16C100.439 8.288 100.223 8.352 99.9189 8.352H96.3909V20.136C96.3909 20.44 96.3189 20.664 96.1749 20.808C96.0469 20.936 95.8309 21 95.5269 21Z" transform="translate(554 -2) scale(2)" fill="white"/>
<path d="M16.56 26H2.28C1.9 26 1.62 25.92 1.44 25.76C1.28 25.58 1.2 25.3 1.2 24.92V19.76C1.2 18.6 1.31 17.65 1.53 16.91C1.77 16.15 2.1 15.53 2.52 15.05C2.94 14.57 3.44 14.19 4.02 13.91C4.6 13.63 5.23 13.39 5.91 13.19L9.93 11.93C10.25 11.85 10.46 11.73 10.56 11.57C10.68 11.41 10.74 11.17 10.74 10.85C10.74 10.55 10.68 10.35 10.56 10.25C10.44 10.13 10.23 10.07 9.93 10.07H3.42C3.04 10.07 2.76 9.99 2.58 9.83C2.42 9.65 2.34 9.37 2.34 8.99V5.48C2.34 5.1 2.42 4.83 2.58 4.67C2.76 4.49 3.04 4.4 3.42 4.4H12.27C13.97 4.4 15.27 4.83 16.17 5.69C17.09 6.53 17.55 7.76 17.55 9.38V12.2C17.55 13.7 17.13 14.85 16.29 15.65C15.45 16.45 14.31 17.07 12.87 17.51L8.79 18.8C8.49 18.88 8.28 18.97 8.16 19.07C8.06 19.17 8.01 19.38 8.01 19.7V20.33H16.56C16.94 20.33 17.21 20.42 17.37 20.6C17.55 20.76 17.64 21.03 17.64 21.41V24.92C17.64 25.3 17.55 25.58 17.37 25.76C17.21 25.92 16.94 26 16.56 26ZM45.8302 20.33C45.8302 21.25 45.7002 22.09 45.4402 22.85C45.1802 23.59 44.7102 24.23 44.0302 24.77C43.3502 25.29 42.4102 25.7 41.2102 26C40.0302 26.3 38.5202 26.45 36.6802 26.45C34.8402 26.45 33.3202 26.3 32.1202 26C30.9402 25.7 30.0102 25.29 29.3302 24.77C28.6502 24.23 28.1702 23.59 27.8902 22.85C27.6302 22.09 27.5002 21.25 27.5002 20.33V10.1C27.5002 9.18 27.6302 8.35 27.8902 7.61C28.1702 6.85 28.6502 6.2 29.3302 5.66C30.0102 5.12 30.9402 4.7 32.1202 4.4C33.3202 4.1 34.8402 3.95 36.6802 3.95C38.5202 3.95 40.0302 4.1 41.2102 4.4C42.4102 4.7 43.3502 5.12 44.0302 5.66C44.7102 6.2 45.1802 6.85 45.4402 7.61C45.7002 8.35 45.8302 9.18 45.8302 10.1V20.33ZM34.2802 19.25C34.2802 19.65 34.4202 19.99 34.7002 20.27C35.0002 20.53 35.6602 20.66 36.6802 20.66C37.7002 20.66 38.3502 20.53 38.6302 20.27C38.9302 19.99 39.0802 19.65 39.0802 19.25V11.18C39.0802 10.8 38.9302 10.48 38.6302 10.22C38.3502 9.94 37.7002 9.8 36.6802 9.8C35.6602 9.8 35.0002 9.94 34.7002 10.22C34.4202 10.48 34.2802 10.8 34.2802 11.18V19.25ZM69.937 26H56.677C56.297 26 56.017 25.92 55.837 25.76C55.677 25.58 55.597 25.3 55.597 24.92V21.29C55.597 20.91 55.677 20.64 55.837 20.48C56.017 20.3 56.297 20.21 56.677 20.21H60.037V10.19H57.277C56.897 10.19 56.617 10.11 56.437 9.95C56.277 9.77 56.197 9.49 56.197 9.11V5.48C56.197 5.1 56.277 4.83 56.437 4.67C56.617 4.49 56.897 4.4 57.277 4.4H65.977C66.357 4.4 66.627 4.49 66.787 4.67C66.967 4.83 67.057 5.1 67.057 5.48V20.21H69.937C70.317 20.21 70.587 20.3 70.747 20.48C70.927 20.64 71.017 20.91 71.017 21.29V24.92C71.017 25.3 70.927 25.58 70.747 25.76C70.587 25.92 70.317 26 69.937 26ZM98.6946 18.32V21.23C98.6946 22.01 98.5446 22.72 98.2446 23.36C97.9646 24 97.4746 24.55 96.7746 25.01C96.0746 25.47 95.1246 25.82 93.9246 26.06C92.7446 26.32 91.2546 26.45 89.4546 26.45C87.6546 26.45 86.1546 26.32 84.9546 26.06C83.7546 25.82 82.8046 25.47 82.1046 25.01C81.4046 24.55 80.9046 24 80.6046 23.36C80.3246 22.72 80.1846 22.01 80.1846 21.23V18.32C80.1846 16.92 80.4846 15.84 81.0846 15.08C81.7046 14.32 82.4646 13.85 83.3646 13.67C82.7046 13.39 82.2446 12.97 81.9846 12.41C81.7246 11.85 81.5946 11.19 81.5946 10.43V8.69C81.5946 7.95 81.7246 7.29 81.9846 6.71C82.2446 6.13 82.6746 5.64 83.2746 5.24C83.8746 4.82 84.6846 4.5 85.7046 4.28C86.7246 4.06 87.9846 3.95 89.4846 3.95C90.9846 3.95 92.2346 4.06 93.2346 4.28C94.2546 4.5 95.0546 4.82 95.6346 5.24C96.2346 5.64 96.6546 6.13 96.8946 6.71C97.1546 7.29 97.2846 7.95 97.2846 8.69V10.43C97.2846 11.19 97.1546 11.85 96.8946 12.41C96.6346 12.97 96.1746 13.39 95.5146 13.67C96.4146 13.85 97.1646 14.32 97.7646 15.08C98.3846 15.84 98.6946 16.92 98.6946 18.32ZM87.5646 11.6C87.5646 11.92 87.6646 12.19 87.8646 12.41C88.0846 12.61 88.6146 12.71 89.4546 12.71C90.3146 12.71 90.8346 12.61 91.0146 12.41C91.2146 12.19 91.3146 11.92 91.3146 11.6V10.28C91.3146 9.98 91.2146 9.73 91.0146 9.53C90.8346 9.31 90.3146 9.2 89.4546 9.2C88.6146 9.2 88.0846 9.31 87.8646 9.53C87.6646 9.73 87.5646 9.98 87.5646 10.28V11.6ZM86.8146 20.09C86.8146 20.41 86.9846 20.68 87.3246 20.9C87.6646 21.1 88.3746 21.2 89.4546 21.2C90.5346 21.2 91.2346 21.1 91.5546 20.9C91.8946 20.68 92.0646 20.41 92.0646 20.09V18.5C92.0646 18.2 91.8946 17.95 91.5546 17.75C91.2346 17.53 90.5346 17.42 89.4546 17.42C88.3746 17.42 87.6646 17.53 87.3246 17.75C86.9846 17.95 86.8146 18.2 86.8146 18.5V20.09Z" transform="translate(556 44) scale(2)" fill="white"/>
<path d="M38.3469 91.14H2.88805C1.87188 91.14 1.12313 90.8093 0.641789 90.148C0.21393 89.404 0 88.2467 0 86.676V71.672C0 70.1013 0.21393 68.9853 0.641789 68.324C1.12313 67.58 1.87188 67.208 2.88805 67.208H11.8731V25.792H4.49252C3.47636 25.792 2.7276 25.4613 2.24626 24.8C1.8184 24.056 1.60447 22.8987 1.60447 21.328V6.324C1.60447 4.75333 1.8184 3.63733 2.24626 2.976C2.7276 2.232 3.47636 1.86 4.49252 1.86H27.7574C28.7735 1.86 29.4955 2.232 29.9234 2.976C30.4047 3.63733 30.6454 4.75333 30.6454 6.324V67.208H38.3469C39.363 67.208 40.085 67.58 40.5129 68.324C40.9942 68.9853 41.2349 70.1013 41.2349 71.672V86.676C41.2349 88.2467 40.9942 89.404 40.5129 90.148C40.085 90.8093 39.363 91.14 38.3469 91.14Z" transform="translate(0 4) scale(2)" fill="white"/>
<path d="M98 67.704C98 71.5067 97.6524 74.9787 96.9571 78.12C96.2618 81.1787 95.005 83.824 93.1866 86.056C91.3682 88.2053 88.8545 89.9 85.6456 91.14C82.4901 92.38 78.4522 93 73.5318 93C68.6114 93 64.5468 92.38 61.3378 91.14C58.1824 89.9 55.6954 88.2053 53.877 86.056C52.0586 83.824 50.7751 81.1787 50.0263 78.12C49.331 74.9787 48.9834 71.5067 48.9834 67.704V25.42C48.9834 21.6173 49.331 18.1867 50.0263 15.128C50.7751 11.9867 52.0586 9.3 53.877 7.06801C55.6954 4.836 58.1824 3.1 61.3378 1.86C64.5468 0.619999 68.6114 0 73.5318 0C78.4522 0 82.4901 0.619999 85.6456 1.86C88.8545 3.1 91.3682 4.836 93.1866 7.06801C95.005 9.3 96.2618 11.9867 96.9571 15.128C97.6524 18.1867 98 21.6173 98 25.42V67.704ZM67.1139 63.24C67.1139 64.8933 67.4883 66.2987 68.2371 67.456C69.0393 68.5307 70.8042 69.068 73.5318 69.068C76.2594 69.068 77.9976 68.5307 78.7463 67.456C79.5486 66.2987 79.9497 64.8933 79.9497 63.24V29.884C79.9497 28.3133 79.5486 26.9907 78.7463 25.916C77.9976 24.7587 76.2594 24.18 73.5318 24.18C70.8042 24.18 69.0393 24.7587 68.2371 25.916C67.4883 26.9907 67.1139 28.3133 67.1139 29.884V63.24Z" transform="translate(0 4) scale(2)" fill="white"/>
<path d="M13.8335 16.625L11.4778 28.6583H19.3468L16.9911 16.625C16.8574 16.15 16.7071 15.8069 16.54 15.5958C16.4063 15.3847 16.2393 15.2792 16.0388 15.2792H14.7858C14.5853 15.2792 14.4015 15.3847 14.2344 15.5958C14.1008 15.8069 13.9671 16.15 13.8335 16.625ZM10.9765 54.15C10.9765 55.1528 10.8262 55.8917 10.5255 56.3667C10.2581 56.7889 9.80705 57 9.17219 57H1.80436C1.1695 57 0.701697 56.7889 0.40097 56.3667C0.133657 55.8917 0 55.1528 0 54.15V33.25C0 31.6667 0.150364 29.8458 0.451091 27.7875C0.785233 25.7292 1.28644 23.3278 1.95473 20.5833L6.31528 2.6125C6.51576 1.71528 6.81649 1.05556 7.21746 0.633335C7.65184 0.211112 8.20317 0 8.87146 0H22.3541C22.9889 0 23.5069 0.211112 23.9078 0.633335C24.3422 1.05556 24.6596 1.71528 24.8601 2.6125L29.2207 20.5833C29.889 23.3278 30.3735 25.7292 30.6742 27.7875C31.0083 29.8458 31.1754 31.6667 31.1754 33.25V54.15C31.1754 55.1528 31.025 55.8917 30.7243 56.3667C30.457 56.7889 30.0059 57 29.371 57H21.8027C21.1345 57 20.6332 56.7889 20.2991 56.3667C19.9984 55.8917 19.848 55.1528 19.848 54.15V43.0667H10.9765V54.15Z" transform="translate(22 242) scale(2)" fill="white"/>
<path d="M46.6362 57H39.1682C38.5333 57 38.0655 56.7889 37.7648 56.3667C37.4975 55.8917 37.3638 55.1528 37.3638 54.15V2.85C37.3638 1.84722 37.4975 1.13472 37.7648 0.7125C38.0655 0.2375 38.5333 0 39.1682 0H47.2377C47.7723 0 48.2067 0.184723 48.5408 0.554169C48.9084 0.923615 49.2425 1.53056 49.5433 2.375L54.0542 15.2792C54.2213 15.7542 54.3549 16.0972 54.4551 16.3083C54.5888 16.5194 54.7559 16.625 54.9564 16.625H55.4075C55.6079 16.625 55.7583 16.5194 55.8585 16.3083C55.9922 16.0972 56.1426 15.7542 56.3096 15.2792L60.7704 2.375C61.0712 1.53056 61.3886 0.923615 61.7227 0.554169C62.0903 0.184723 62.5414 0 63.076 0H71.1956C71.8305 0 72.2816 0.2375 72.5489 0.7125C72.8496 1.13472 73 1.84722 73 2.85V54.15C73 55.1528 72.8496 55.8917 72.5489 56.3667C72.2816 56.7889 71.8305 57 71.1956 57H63.477C62.8421 57 62.3743 56.7889 62.0736 56.3667C61.8063 55.8917 61.6726 55.1528 61.6726 54.15V26.2833L58.7155 34.9125C58.4147 35.8097 58.0472 36.4694 57.6128 36.8917C57.2118 37.2611 56.6939 37.4458 56.059 37.4458H54.0542C53.4193 37.4458 52.8847 37.2611 52.4503 36.8917C52.0493 36.4694 51.6985 35.8097 51.3978 34.9125L48.4406 26.2833V54.15C48.4406 55.1528 48.2902 55.8917 47.9895 56.3667C47.7222 56.7889 47.2711 57 46.6362 57Z" transform="translate(22 242) scale(2)" fill="white"/>
<path d="M17.78 60H7.35C6.46333 60 5.81 59.8133 5.39 59.44C5.01667 59.02 4.83 58.3667 4.83 57.48V12.12C4.83 11.2333 5.01667 10.6033 5.39 10.23C5.81 9.81 6.46333 9.6 7.35 9.6H18.62C19.3667 9.6 19.9733 9.76333 20.44 10.09C20.9533 10.4167 21.42 10.9533 21.84 11.7L28.14 23.11C28.3733 23.53 28.56 23.8333 28.7 24.02C28.8867 24.2067 29.12 24.3 29.4 24.3H30.03C30.31 24.3 30.52 24.2067 30.66 24.02C30.8467 23.8333 31.0567 23.53 31.29 23.11L37.52 11.7C37.94 10.9533 38.3833 10.4167 38.85 10.09C39.3633 9.76333 39.9933 9.6 40.74 9.6H52.08C52.9667 9.6 53.5967 9.81 53.97 10.23C54.39 10.6033 54.6 11.2333 54.6 12.12V57.48C54.6 58.3667 54.39 59.02 53.97 59.44C53.5967 59.8133 52.9667 60 52.08 60H41.3C40.4133 60 39.76 59.8133 39.34 59.44C38.9667 59.02 38.78 58.3667 38.78 57.48V32.84L34.65 40.47C34.23 41.2633 33.7167 41.8467 33.11 42.22C32.55 42.5467 31.8267 42.71 30.94 42.71H28.14C27.2533 42.71 26.5067 42.5467 25.9 42.22C25.34 41.8467 24.85 41.2633 24.43 40.47L20.3 32.84V57.48C20.3 58.3667 20.09 59.02 19.67 59.44C19.2967 59.8133 18.6667 60 17.78 60ZM127.444 46.77C127.444 48.9167 127.118 50.8767 126.464 52.65C125.858 54.3767 124.738 55.87 123.104 57.13C121.518 58.3433 119.324 59.3 116.524 60C113.724 60.7 110.154 61.05 105.814 61.05C101.474 61.05 97.9043 60.7 95.1043 60C92.3043 59.3 90.0876 58.3433 88.4543 57.13C86.8676 55.87 85.7476 54.3767 85.0943 52.65C84.4876 50.8767 84.1843 48.9167 84.1843 46.77V12.12C84.1843 11.2333 84.371 10.6033 84.7443 10.23C85.1643 9.81 85.8176 9.6 86.7043 9.6H97.6943C98.581 9.6 99.211 9.81 99.5843 10.23C100.004 10.6033 100.214 11.2333 100.214 12.12V44.04C100.214 44.9733 100.564 45.7667 101.264 46.42C101.964 47.0267 103.528 47.33 105.954 47.33C108.428 47.33 110.014 47.0267 110.714 46.42C111.414 45.7667 111.764 44.9733 111.764 44.04V12.12C111.764 11.2333 111.951 10.6033 112.324 10.23C112.744 9.81 113.398 9.6 114.284 9.6H124.924C125.811 9.6 126.441 9.81 126.814 10.23C127.234 10.6033 127.444 11.2333 127.444 12.12V46.77ZM172.881 22.2V31.16H178.131C179.344 31.16 180.161 30.8567 180.581 30.25C181.001 29.5967 181.211 28.8033 181.211 27.87V25.49C181.211 24.5567 181.001 23.7867 180.581 23.18C180.161 22.5267 179.344 22.2 178.131 22.2H172.881ZM170.361 60H159.581C158.694 60 158.041 59.8133 157.621 59.44C157.248 59.02 157.061 58.3667 157.061 57.48V12.12C157.061 11.2333 157.248 10.6033 157.621 10.23C158.041 9.81 158.694 9.6 159.581 9.6H182.891C188.118 9.6 191.711 10.6967 193.671 12.89C195.678 15.0367 196.681 17.8367 196.681 21.29V24.51C196.681 26.47 196.378 28.15 195.771 29.55C195.211 30.9033 194.208 31.8833 192.761 32.49C195.281 32.77 197.311 33.7967 198.851 35.57C200.438 37.3433 201.231 39.7 201.231 42.64V57.48C201.231 58.3667 201.021 59.02 200.601 59.44C200.228 59.8133 199.598 60 198.711 60H187.861C186.974 60 186.321 59.8133 185.901 59.44C185.528 59.02 185.341 58.3667 185.341 57.48V46.77C185.341 45.7433 185.131 44.9967 184.711 44.53C184.338 44.0167 183.661 43.76 182.681 43.76H172.881V57.48C172.881 58.3667 172.671 59.02 172.251 59.44C171.878 59.8133 171.248 60 170.361 60ZM230.782 60C229.896 60 229.242 59.8133 228.822 59.44C228.449 59.02 228.262 58.3667 228.262 57.48V49.15C228.262 48.2633 228.449 47.6333 228.822 47.26C229.242 46.84 229.896 46.63 230.782 46.63H237.712V23.11H230.782C229.896 23.11 229.242 22.9233 228.822 22.55C228.449 22.13 228.262 21.4767 228.262 20.59V12.12C228.262 11.2333 228.449 10.6033 228.822 10.23C229.242 9.81 229.896 9.6 230.782 9.6H260.602C261.489 9.6 262.119 9.81 262.492 10.23C262.912 10.6033 263.122 11.2333 263.122 12.12V20.59C263.122 21.4767 262.912 22.13 262.492 22.55C262.119 22.9233 261.489 23.11 260.602 23.11H253.812V46.63H260.602C261.489 46.63 262.119 46.84 262.492 47.26C262.912 47.6333 263.122 48.2633 263.122 49.15V57.48C263.122 58.3667 262.912 59.02 262.492 59.44C262.119 59.8133 261.489 60 260.602 60H230.782Z" transform="translate(222 96) scale(2)" fill="white"/>
<path d="M14.3 47H5.775C5.07833 47 4.565 46.8533 4.235 46.56C3.94167 46.23 3.795 45.7167 3.795 45.02V9.38C3.795 8.68333 3.94167 8.18833 4.235 7.895C4.565 7.565 5.07833 7.4 5.775 7.4H30.305C31.0017 7.4 31.4967 7.565 31.79 7.895C32.12 8.18833 32.285 8.68333 32.285 9.38V15.925C32.285 16.6217 32.12 17.135 31.79 17.465C31.4967 17.7583 31.0017 17.905 30.305 17.905H16.28V23.625H25.85C26.5467 23.625 27.0417 23.79 27.335 24.12C27.665 24.4133 27.83 24.9083 27.83 25.605V32.205C27.83 32.9017 27.665 33.415 27.335 33.745C27.0417 34.0383 26.5467 34.185 25.85 34.185H16.28V45.02C16.28 45.7167 16.115 46.23 15.785 46.56C15.4917 46.8533 14.9967 47 14.3 47ZM70.794 47H45.274C44.5774 47 44.064 46.8533 43.734 46.56C43.4407 46.23 43.294 45.7167 43.294 45.02V9.38C43.294 8.68333 43.4407 8.18833 43.734 7.895C44.064 7.565 44.5774 7.4 45.274 7.4H70.794C71.4907 7.4 71.9857 7.565 72.279 7.895C72.609 8.18833 72.774 8.68333 72.774 9.38V15.815C72.774 16.5117 72.609 17.025 72.279 17.355C71.9857 17.6483 71.4907 17.795 70.794 17.795H55.614V22.03H66.339C67.0357 22.03 67.5307 22.195 67.824 22.525C68.154 22.8183 68.319 23.3133 68.319 24.01V29.895C68.319 30.5917 68.154 31.105 67.824 31.435C67.5307 31.7283 67.0357 31.875 66.339 31.875H55.614V36.605H70.794C71.4907 36.605 71.9857 36.77 72.279 37.1C72.609 37.3933 72.774 37.8883 72.774 38.585V45.02C72.774 45.7167 72.609 46.23 72.279 46.56C71.9857 46.8533 71.4907 47 70.794 47ZM112.28 47H86.7604C86.0637 47 85.5504 46.8533 85.2204 46.56C84.927 46.23 84.7804 45.7167 84.7804 45.02V9.38C84.7804 8.68333 84.927 8.18833 85.2204 7.895C85.5504 7.565 86.0637 7.4 86.7604 7.4H112.28C112.977 7.4 113.472 7.565 113.765 7.895C114.095 8.18833 114.26 8.68333 114.26 9.38V15.815C114.26 16.5117 114.095 17.025 113.765 17.355C113.472 17.6483 112.977 17.795 112.28 17.795H97.1004V22.03H107.825C108.522 22.03 109.017 22.195 109.31 22.525C109.64 22.8183 109.805 23.3133 109.805 24.01V29.895C109.805 30.5917 109.64 31.105 109.31 31.435C109.017 31.7283 108.522 31.875 107.825 31.875H97.1004V36.605H112.28C112.977 36.605 113.472 36.77 113.765 37.1C114.095 37.3933 114.26 37.8883 114.26 38.585V45.02C114.26 45.7167 114.095 46.23 113.765 46.56C113.472 46.8533 112.977 47 112.28 47Z" transform="translate(788 -14) scale(2)" fill="white"/>
<path d="M16.892 3.14591C17.5176 3.23403 17.9477 3.32215 18.1823 3.41027C18.417 3.41027 18.7298 3.45433 19.1208 3.54245C19.981 3.71869 20.5285 3.71869 20.7631 3.54245C21.0759 3.36621 21.3887 3.41027 21.7015 3.67463C22.0925 3.58651 22.4444 3.49839 22.7573 3.41027C23.0701 3.32215 23.422 3.27809 23.813 3.27809C24.0476 3.27809 24.3213 3.32215 24.6341 3.41027C24.947 3.41027 25.2207 3.41027 25.4553 3.41027C26.4719 3.32215 27.0976 3.32215 27.3322 3.41027C27.5668 3.49839 27.7623 3.54245 27.9187 3.54245C28.7789 3.54245 29.2873 3.49839 29.4437 3.41027C29.5219 3.76275 29.6783 3.98305 29.9129 4.07117C30.1475 4.1593 30.343 4.29148 30.4994 4.46772C30.9686 5.17268 31.2033 5.56923 31.2033 5.65735C31.2033 5.74547 31.2424 5.87765 31.3206 6.05389C31.7116 6.84698 31.9462 7.41976 32.0244 7.77224C32.259 9.7109 32.3372 11.5174 32.259 13.1917C32.259 14.7778 32.1808 16.364 32.0244 17.9502C31.9462 18.4789 31.868 19.0517 31.7898 19.6685C31.7116 20.1973 31.7116 20.726 31.7898 21.2547C32.0244 22.6646 32.1417 23.8102 32.1417 24.6914C32.1417 25.5726 32.0635 26.3657 31.9071 27.0707C31.7507 28.745 31.6725 30.0668 31.6725 31.0361C31.6725 31.9173 31.6334 32.7104 31.5552 33.4154C31.5552 33.5916 31.5552 33.9441 31.5552 34.4728C31.5552 35.0015 31.477 35.4421 31.3206 35.7946C31.477 36.2352 31.5161 36.6758 31.4379 37.1164C31.3597 37.557 31.3206 37.9976 31.3206 38.4382C31.3206 39.0551 31.3988 39.5397 31.5552 39.8922C31.3988 41.214 31.3597 42.4037 31.4379 43.4611C31.5161 44.4304 31.5552 45.3116 31.5552 46.1047C31.6334 47.6028 31.5552 49.233 31.3206 50.9954C31.2424 51.2598 31.2033 51.7445 31.2033 52.4494C31.0468 53.1544 30.9686 53.595 30.9686 53.7712C31.0468 53.8593 31.0859 53.9915 31.0859 54.1678V56.1505C31.1642 56.9436 31.2033 57.3842 31.2033 57.4723C31.2815 57.5604 31.3206 57.6485 31.3206 57.7367C31.477 58.4416 31.477 59.1466 31.3206 59.8516C31.1642 60.4684 31.0859 61.1293 31.0859 61.8343C31.1642 62.5392 31.1642 62.9358 31.0859 63.0239C31.0859 63.112 31.0859 63.2442 31.0859 63.4204C31.0859 63.7729 31.0859 64.0813 31.0859 64.3457C31.1642 64.6101 31.2424 64.9185 31.3206 65.271C31.3206 65.9759 31.2815 66.6368 31.2033 67.2537C31.2033 67.7824 31.2033 68.3993 31.2033 69.1042C31.2033 69.3686 31.2033 69.6329 31.2033 69.8973C31.2815 70.1617 31.3206 70.426 31.3206 70.6904C31.2424 72.5409 31.2424 73.9068 31.3206 74.788C31.477 75.5811 31.5552 76.4182 31.5552 77.2994C31.6334 78.0925 31.6725 78.8856 31.6725 79.6787C31.6725 80.3837 31.7507 81.0886 31.9071 81.7936C31.9853 82.2342 31.9853 82.6748 31.9071 83.1154C31.9071 83.556 31.9462 83.9526 32.0244 84.305C32.1026 84.5694 32.1808 84.8338 32.259 85.0981C32.3372 85.3625 32.4154 85.6268 32.4936 85.8912C32.4154 86.8605 32.4154 87.6536 32.4936 88.2705C32.65 88.7992 32.7673 89.3279 32.8455 89.8566C32.7673 90.2972 32.7673 90.6938 32.8455 91.0463C32.9237 91.3106 32.9628 91.575 32.9628 91.8393C32.8846 92.5443 32.8846 93.073 32.9628 93.4255C33.041 93.6899 33.0801 93.9983 33.0801 94.3508C33.1583 94.7914 33.1583 95.1879 33.0801 95.5404C33.0801 95.8929 33.1583 96.2894 33.3148 96.73C33.1583 97.1706 33.1192 97.6113 33.1974 98.0519C33.2756 98.4925 33.3148 98.9771 33.3148 99.5058C33.3148 99.7702 33.2756 100.035 33.1974 100.299C33.1192 100.475 33.1192 100.695 33.1974 100.96C32.5718 101.841 32.0244 102.238 31.5552 102.149C31.1642 102.149 30.8122 102.149 30.4994 102.149C29.6392 102.149 29.0918 102.017 28.8571 101.753C27.7623 101.929 27.0585 102.061 26.7456 102.149C26.4328 102.238 26.1591 102.326 25.9245 102.414C25.6899 102.502 25.4162 102.546 25.1034 102.546C24.8688 102.546 24.6732 102.546 24.5168 102.546C24.0476 102.546 23.6957 102.546 23.4611 102.546C23.3047 102.634 23.1483 102.678 22.9919 102.678C21.3496 102.678 20.1765 102.766 19.4727 102.943H17.8304C17.1266 102.766 16.501 102.678 15.9535 102.678C15.4843 102.678 15.1715 102.634 15.0151 102.546C14.2331 102.37 13.842 102.238 13.842 102.149C13.842 102.149 13.8029 102.149 13.7247 102.149C13.0991 102.149 12.6299 101.973 12.3171 101.621C11.7696 100.828 11.4959 100.255 11.4959 99.9024C11.5741 99.4618 11.4568 99.0212 11.144 98.5806C11.3004 98.14 11.3786 97.6553 11.3786 97.1266C11.4568 96.5979 11.5741 96.0251 11.7305 95.4082C11.8087 95.0558 11.8479 94.7473 11.8479 94.483C11.8479 94.1305 11.887 93.7339 11.9652 93.2933C12.0434 92.9409 12.0825 92.6324 12.0825 92.3681C12.0825 92.1037 12.0825 91.9275 12.0825 91.8393C12.0825 91.2225 12.0825 90.6497 12.0825 90.121C12.1607 89.5923 12.2389 89.1076 12.3171 88.667C12.3953 87.6096 12.4344 86.6402 12.4344 85.759C12.4344 84.7897 12.5126 83.8204 12.669 82.851C12.5908 82.5867 12.5126 82.3664 12.4344 82.1901C12.4344 82.0139 12.4344 81.7495 12.4344 81.3971C12.4344 81.1327 12.4735 80.8683 12.5517 80.604C12.6299 80.2515 12.669 79.9431 12.669 79.6787C12.5908 78.1806 12.5908 77.1232 12.669 76.5064C12.7472 75.8895 12.7863 75.2286 12.7863 74.5236C12.7863 73.5543 12.7863 73.0256 12.7863 72.9375C12.8645 72.8493 12.9036 72.7612 12.9036 72.6731C12.8254 71.7919 12.8254 71.131 12.9036 70.6904C12.9818 70.1617 13.0209 69.5889 13.0209 68.972C13.1773 68.0908 13.2555 67.474 13.2555 67.1215C13.1773 66.5928 13.1773 66.1081 13.2555 65.6675C13.4119 65.2269 13.4901 64.7863 13.4901 64.3457C13.5683 62.6714 13.6074 61.4377 13.6074 60.6446C13.6074 59.8516 13.6074 58.8822 13.6074 57.7367C13.6074 56.503 13.6074 55.798 13.6074 55.6218C13.6856 55.3574 13.7638 55.093 13.842 54.8287C13.7638 54.3881 13.7247 54.0356 13.7247 53.7712C13.8029 53.5069 13.842 53.2425 13.842 52.9781C13.842 52.7138 13.8029 52.4494 13.7247 52.1851C13.7247 51.8326 13.7247 51.5241 13.7247 51.2598C13.7247 50.5548 13.7638 49.8939 13.842 49.2771C13.9985 48.6602 14.0376 47.9993 13.9593 47.2944C13.8811 45.9725 13.8811 45.1795 13.9593 44.9151C13.9593 44.0339 13.9202 43.5052 13.842 43.3289C13.842 43.0646 13.8811 42.8443 13.9593 42.668C13.9593 41.5225 13.9202 40.5091 13.842 39.6279C13.7638 38.6585 13.7638 37.557 13.842 36.3233C13.842 35.7946 13.8029 35.3981 13.7247 35.1337C13.6465 34.8693 13.6074 34.605 13.6074 34.3406C13.6074 33.6357 13.6465 32.9748 13.7247 32.3579C13.8029 31.7411 13.7247 31.0802 13.4901 30.3752C13.2555 30.2871 13.0209 30.2871 12.7863 30.3752C12.5517 30.4633 12.278 30.5074 11.9652 30.5074C11.0267 30.6836 10.5184 30.8158 10.4402 30.9039C9.73635 30.992 8.99342 30.992 8.21138 30.9039C7.42935 30.8158 6.64731 30.8158 5.86527 30.9039C5.70887 30.992 5.51336 31.1242 5.27875 31.3005C5.04413 31.3886 4.80952 31.4326 4.57491 31.4326C4.02749 31.0802 3.55827 30.948 3.16725 31.0361C2.85443 31.0361 2.61982 30.992 2.46341 30.9039C2.1506 30.7277 1.91599 30.5074 1.75958 30.243C1.60317 29.8905 1.44677 29.538 1.29036 29.1856C0.821138 28.3044 0.547425 27.8638 0.469222 27.8638C0.391018 27.7756 0.312815 27.6435 0.234611 27.4672C0.0782036 27.1147 0 26.7182 0 26.2776C0.0782036 25.7489 0.195509 25.2642 0.351916 24.8236C0.742935 23.9424 1.05575 23.3255 1.29036 22.9731C1.52497 22.5325 1.72048 22.224 1.87689 22.0478C2.42431 21.2547 2.69803 20.8141 2.69803 20.726C2.69803 20.6379 2.73713 20.5497 2.81533 20.4616C3.51916 19.5804 3.87108 19.0957 3.87108 19.0076C3.94928 18.8314 4.06659 18.6551 4.223 18.4789C4.84863 17.8621 5.12234 17.5096 5.04413 17.4215C5.04413 17.3333 5.08324 17.2893 5.16144 17.2893C5.86527 16.4081 6.21719 15.8353 6.21719 15.5709C6.29539 15.3066 6.4518 15.0863 6.68641 14.91C6.92102 14.7338 7.07743 14.4254 7.15563 13.9847C7.31204 13.5441 7.46845 13.1917 7.62485 12.9273C8.17228 12.1342 8.44599 11.6936 8.44599 11.6055C8.91521 10.8124 9.11072 10.4159 9.03252 10.4159C9.03252 10.3277 9.11072 10.2396 9.26713 10.1515C9.57995 9.62278 9.73635 9.04999 9.73635 8.43315C10.2838 7.46382 10.7139 6.71479 11.0267 6.18607C11.6523 5.74547 11.9652 5.34892 11.9652 4.99644C12.3562 4.55584 12.6299 4.33554 12.7863 4.33554C12.9427 4.24742 13.0991 4.1593 13.2555 4.07117C14.2722 3.54245 14.976 3.36621 15.367 3.54245C15.758 3.63057 16.1491 3.54245 16.5401 3.27809L16.892 3.14591Z" transform="translate(808 148) scale(2)" fill="white"/>
<path d="M62.8757 1.42755C63.0321 1.69192 63.1494 1.95628 63.2276 2.22064C63.384 2.485 63.5405 2.74936 63.6969 3.01373C64.1661 4.1593 64.2834 5.43704 64.0488 6.84698C63.9706 7.19946 63.8924 7.596 63.8142 8.0366C63.736 8.38909 63.6969 8.78563 63.6969 9.22623C63.7751 9.9312 63.8142 10.3718 63.8142 10.548C63.8142 10.6362 63.7751 10.7243 63.6969 10.8124C63.8533 11.3411 63.8533 11.8258 63.6969 12.2664C63.6187 12.707 63.6187 13.1476 63.6969 13.5882C63.6969 14.0288 63.7751 14.5135 63.9315 15.0422C63.9315 16.2759 63.8924 17.3333 63.8142 18.2145C63.8142 19.0076 63.7751 19.7567 63.6969 20.4616C63.6187 20.6379 63.5796 20.8582 63.5796 21.1225C63.5796 21.3869 63.5014 21.6512 63.3449 21.9156C63.4232 22.8849 63.4623 23.3696 63.4623 23.3696C63.5405 23.3696 63.5796 23.4137 63.5796 23.5018C63.6578 24.2067 63.6578 24.6033 63.5796 24.6914C63.5796 24.6914 63.5796 24.7795 63.5796 24.9558C63.6578 25.837 63.6187 26.4538 63.4623 26.8063C63.384 27.0707 63.3449 27.4231 63.3449 27.8638V31.5648C63.3449 32.0054 63.3449 32.4901 63.3449 33.0188C63.4232 33.4594 63.4232 33.9441 63.3449 34.4728C63.3449 35.2659 63.3058 35.8387 63.2276 36.1912C63.1494 36.4555 63.1103 36.6758 63.1103 36.8521C63.1103 37.8214 63.0712 38.4382 62.993 38.7026C62.9148 38.967 62.8757 39.1873 62.8757 39.3635C63.0321 40.2447 63.0712 40.8175 62.993 41.0819C62.993 41.3462 62.993 41.6106 62.993 41.8749V43.5933C63.0712 44.2983 63.0712 44.7389 62.993 44.9151C62.9148 45.0032 62.8757 45.1354 62.8757 45.3116C62.9539 46.281 62.9539 47.0741 62.8757 47.6909C62.7975 48.2196 62.8366 48.7043 62.993 49.1449L62.7584 50.5989C62.602 51.6563 62.4847 52.4935 62.4065 53.1103C62.4065 53.7272 62.5238 54.2999 62.7584 54.8287C63.384 54.2999 63.8533 53.9475 64.1661 53.7712C64.4789 53.2425 64.6744 52.9341 64.7526 52.846C64.909 52.7578 65.0654 52.6697 65.2218 52.5816C65.6911 51.8766 65.9257 51.5241 65.9257 51.5241C66.0039 51.436 66.0821 51.392 66.1603 51.392C66.7077 50.8632 67.1378 50.3345 67.4506 49.8058C68.1545 49.189 68.5846 48.8365 68.741 48.7483C68.8974 48.6602 69.0538 48.528 69.2102 48.3518C69.7576 47.4706 70.1487 46.9419 70.3833 46.7656C70.6961 46.5894 70.9307 46.3691 71.0871 46.1047C71.2435 45.9285 71.3608 45.7082 71.439 45.4438C71.5172 45.1795 71.7127 45.0032 72.0256 44.9151C72.573 44.0339 73.0031 43.4611 73.3159 43.1967C73.6287 42.9324 73.8633 42.5358 74.0197 42.0071C74.8018 41.214 75.271 40.6853 75.4274 40.4209C75.5838 40.0685 75.8575 39.8041 76.2485 39.6279L77.7735 37.6451C77.9299 37.4689 78.0472 37.2927 78.1254 37.1164C78.2818 36.9402 78.4774 36.7639 78.712 36.5877C79.0248 35.8827 79.2203 35.4862 79.2985 35.3981C79.4549 35.2218 79.5722 35.0456 79.6504 34.8693C80.0414 34.0763 80.5106 33.4154 81.0581 32.8866C81.4491 32.2698 81.6446 31.9614 81.6446 31.9614C81.6446 31.8732 81.6837 31.7411 81.7619 31.5648C82.2311 30.948 82.5048 30.5514 82.583 30.3752C82.7395 30.1989 82.8177 30.0227 82.8177 29.8465C83.2869 28.8771 83.5606 28.4365 83.6388 28.5247C83.7952 28.6128 83.9125 28.6128 83.9907 28.5247C84.3035 27.7316 84.6945 27.1147 85.1638 26.6741C85.242 26.2335 85.3593 25.881 85.5157 25.6167C85.7503 25.2642 85.9067 24.8676 85.9849 24.427C86.2195 24.3389 86.415 24.2508 86.5714 24.1627C86.7278 23.9864 86.9624 23.8102 87.2753 23.634C88.1355 23.1934 88.8002 22.8849 89.2695 22.7087C90.0515 23.1493 90.5598 23.4577 90.7944 23.634C91.029 23.8102 91.3419 23.9864 91.7329 24.1627L92.7886 25.7489C93.1796 26.4538 93.4925 26.8063 93.7271 26.8063C93.9617 27.335 94.1181 27.7316 94.1963 27.9959C94.2745 28.1722 94.3527 28.3484 94.4309 28.5247L95.1347 30.1108C95.2911 30.9039 95.4475 31.3886 95.6039 31.5648C95.7604 31.6529 95.8386 31.8292 95.8386 32.0935C96.0732 32.5341 96.2687 32.9748 96.4251 33.4154C96.6597 33.856 96.9725 34.2084 97.3635 34.4728C97.8328 36.1471 98.1065 37.2927 98.1847 37.9095C98.3411 38.4382 98.3802 39.1873 98.302 40.1566L97.3635 41.214C97.2071 41.4784 97.0116 41.7428 96.777 42.0071C96.5424 42.1834 96.3469 42.4918 96.1905 42.9324L95.4866 44.2542C95.3302 44.4304 95.1347 44.6067 94.9001 44.7829C94.6655 44.9592 94.47 45.2235 94.3136 45.576C94.079 45.7522 93.8444 45.9725 93.6098 46.2369C93.3751 46.4132 93.1014 46.5894 92.7886 46.7656C92.554 46.9419 92.2803 47.1622 91.9675 47.4265C91.7329 47.6028 91.4983 47.8671 91.2636 48.2196C91.029 48.3959 90.7944 48.6162 90.5598 48.8805C90.3252 49.0568 90.0906 49.233 89.856 49.4093C89.2304 50.0261 88.8784 50.4226 88.8002 50.5989C88.722 50.687 88.6047 50.7311 88.4483 50.7311C87.8227 51.436 87.3926 51.9207 87.158 52.1851C86.9233 52.4494 86.6105 52.6697 86.2195 52.846C85.9067 53.2866 85.7112 53.639 85.633 53.9034C85.5548 54.0796 85.4375 54.2118 85.2811 54.2999C84.6554 55.0049 84.2253 55.4896 83.9907 55.7539C83.5997 56.2827 83.2869 56.6792 83.0523 56.9436C82.6612 57.5604 82.4266 57.9129 82.3484 58.001C82.2702 58.001 82.1529 58.0891 81.9965 58.2654C81.2927 59.2347 80.9408 59.7194 80.9408 59.7194C80.0805 60.6887 79.5331 61.4377 79.2985 61.9664C78.7511 62.7595 78.5947 63.2883 78.8293 63.5526C79.0639 63.7289 79.2985 63.9492 79.5331 64.2135C79.8459 64.8304 80.0805 65.2269 80.2369 65.4032C80.4715 65.4913 80.5889 65.6235 80.5889 65.7997C81.1363 66.1522 81.4882 66.4165 81.6446 66.5928C81.8792 66.769 82.0747 66.9453 82.2311 67.1215C82.6221 68.0027 82.8959 68.5314 83.0523 68.7077C83.2869 68.7958 83.4824 68.928 83.6388 69.1042C83.9516 69.9854 84.2253 70.5582 84.4599 70.8226C84.8509 71.3513 85.0856 71.6157 85.1638 71.6157C85.242 71.6157 85.3202 71.7038 85.3984 71.88C85.8676 72.4087 86.1413 72.8053 86.2195 73.0696C86.3759 73.2459 86.5323 73.4221 86.6887 73.5984C87.158 74.1271 87.4317 74.3915 87.5099 74.3915C87.5881 74.3915 87.6272 74.4796 87.6272 74.6558C87.8618 74.8321 88.0573 75.0964 88.2137 75.4489C88.3701 75.7133 88.5265 76.0217 88.6829 76.3742C89.1521 77.0791 89.4259 77.4757 89.5041 77.5638C89.6605 77.5638 89.8169 77.6519 89.9733 77.8282C90.3643 78.5331 90.5989 78.9297 90.6771 79.0178C90.8335 79.0178 90.9508 79.1059 91.029 79.2822C91.8111 79.8109 92.2412 80.0752 92.3194 80.0752L93.2578 81.3971C94.0399 82.0139 94.5091 82.5426 94.6655 82.9832C94.9001 83.3357 95.1738 83.6001 95.4866 83.7763C96.1905 84.305 96.6206 84.6135 96.777 84.7016C97.0116 84.7897 97.2071 84.9219 97.3635 85.0981C97.8328 85.2744 98.1456 85.4065 98.302 85.4947C98.4584 85.5828 98.6148 85.715 98.7712 85.8912C99.3968 86.6843 99.7487 87.1249 99.8269 87.213C99.9051 87.3011 100.022 87.4333 100.179 87.6096C100.57 88.5789 100.804 89.1076 100.883 89.1957C100.961 89.1957 101 89.2839 101 89.4601C100.687 90.5175 100.453 91.1344 100.296 91.3106C100.14 91.4869 100.101 91.7072 100.179 91.9715C99.6314 92.2359 99.2404 92.7206 99.0058 93.4255C98.8494 94.1305 98.5757 94.6592 98.1847 95.0117C97.4026 96.2454 96.7379 97.6113 96.1905 99.1093C95.6431 99.638 95.3302 99.9464 95.252 100.035C95.252 100.123 95.1738 100.211 95.0174 100.299C94.6264 100.651 94.3918 100.96 94.3136 101.224C94.2354 101.4 94.079 101.577 93.8444 101.753C93.6098 102.37 93.2578 102.943 92.7886 103.471C92.6322 103.559 92.4367 103.648 92.2021 103.736C91.9675 103.824 91.6938 103.912 91.381 104C91.1463 104 90.8726 103.956 90.5598 103.868C90.3252 103.78 90.0906 103.692 89.856 103.603C89.465 102.898 89.1521 102.458 88.9175 102.282C88.6829 101.841 88.4874 101.577 88.331 101.489C88.2528 101.312 88.1746 101.136 88.0964 100.96C87.7836 100.431 87.4708 99.9905 87.158 99.638C86.8451 99.4618 86.5714 99.1534 86.3368 98.7128C86.1804 98.2722 85.9458 97.9637 85.633 97.7875C85.4766 97.435 85.2811 97.1266 85.0465 96.8622C84.8901 96.5979 84.7336 96.3335 84.5772 96.0691C84.0298 95.1879 83.717 94.7033 83.6388 94.6151C83.326 94.1745 83.0914 93.9102 82.935 93.8221C82.8568 93.7339 82.7395 93.6018 82.583 93.4255C82.4266 92.9849 82.192 92.5884 81.8792 92.2359C81.6446 91.8834 81.41 91.5309 81.1754 91.1784C80.7844 90.4735 80.4715 89.9888 80.2369 89.7245C80.0023 89.4601 79.7286 89.1957 79.4158 88.9314C79.0248 88.3145 78.7511 87.962 78.5947 87.8739C78.5165 87.6977 78.3991 87.5214 78.2427 87.3452C77.8517 86.6402 77.5389 86.1556 77.3043 85.8912C77.1479 85.6268 76.8742 85.4065 76.4832 85.2303C76.1703 84.5253 75.8184 83.9085 75.4274 83.3798C75.1146 82.851 74.6845 82.4104 74.137 82.058C73.8242 81.4411 73.6287 81.0886 73.5505 81.0005C73.4723 80.8243 73.3159 80.6921 73.0813 80.604C72.6903 79.8109 72.4557 79.4143 72.3775 79.4143C72.3775 79.4143 72.3384 79.3703 72.2602 79.2822C71.8691 78.6653 71.5954 78.2688 71.439 78.0925C71.3608 77.9163 71.2435 77.74 71.0871 77.5638C70.3833 77.1232 70.0314 76.8588 70.0314 76.7707C70.0314 76.6826 69.9923 76.5945 69.9141 76.5064C68.9756 75.6251 68.4282 75.1845 68.2718 75.1845C67.8026 74.3033 67.4897 73.8187 67.3333 73.7306C67.2551 73.5543 67.1769 73.334 67.0987 73.0696C66.6295 72.9815 66.2385 72.8934 65.9257 72.8053C65.6129 72.629 65.2609 72.5409 64.8699 72.5409C64.6353 72.629 64.4007 72.8053 64.1661 73.0696C63.9315 73.2459 63.6969 73.4221 63.4623 73.5984C63.2276 73.7746 62.993 73.9509 62.7584 74.1271C62.602 74.3033 62.4065 74.4796 62.1719 74.6558C62.1719 75.0964 62.1719 75.6692 62.1719 76.3742C62.1719 76.991 62.2892 77.5197 62.5238 77.9603C62.5238 78.3128 62.4847 78.6653 62.4065 79.0178C62.4065 79.3703 62.4065 79.7668 62.4065 80.2074C62.4065 81.0005 62.4456 81.4852 62.5238 81.6614C62.602 81.8377 62.6411 82.0139 62.6411 82.1901C62.4847 83.2476 62.4065 83.7763 62.4065 83.7763C62.4847 83.7763 62.5238 83.8204 62.5238 83.9085C62.4456 84.4372 62.4456 84.8338 62.5238 85.0981C62.602 85.2744 62.6411 85.5828 62.6411 86.0234C62.7193 87.169 62.7193 87.8299 62.6411 88.0061C62.5629 88.1823 62.602 88.4908 62.7584 88.9314C62.9148 89.5482 62.993 90.1651 62.993 90.7819C62.9148 91.3987 62.9148 91.8393 62.993 92.1037C63.0712 92.28 63.1494 92.5003 63.2276 92.7646C63.2276 93.029 63.1885 93.2493 63.1103 93.4255C63.1103 93.6018 63.1494 93.9102 63.2276 94.3508C63.2276 94.6151 63.2667 94.9236 63.3449 95.2761C63.4232 95.5404 63.4623 95.8488 63.4623 96.2013C63.4623 97.1706 63.4623 97.8316 63.4623 98.184C63.5405 98.4484 63.4623 98.7568 63.2276 99.1093C63.2276 100.255 63.0321 100.96 62.6411 101.224C62.0155 101.489 61.5463 101.665 61.2334 101.753C60.9988 101.841 60.8033 101.973 60.6469 102.149C60.3341 101.973 60.0604 101.929 59.8258 102.017C59.5912 102.194 59.3566 102.326 59.122 102.414C58.7309 102.326 58.3399 102.238 57.9489 102.149C57.5579 102.149 57.1278 102.149 56.6585 102.149C56.5021 102.149 56.2675 102.149 55.9547 102.149C55.7201 102.238 55.5246 102.194 55.3682 102.017C54.5861 102.282 54.1169 102.37 53.9605 102.282C53.8041 102.282 53.6477 102.282 53.4913 102.282C52.5528 102.37 52.0836 102.414 52.0836 102.414C51.458 102.238 51.067 102.149 50.9106 102.149C50.8324 102.238 50.7542 102.194 50.676 102.017C49.8157 102.017 49.3074 102.017 49.151 102.017C48.9946 102.105 48.7991 102.105 48.5645 102.017C48.3298 101.929 48.0561 101.841 47.7433 101.753C47.5087 101.753 47.3132 101.665 47.1568 101.489C46.2184 100.872 45.7491 100.607 45.7491 100.695L45.3972 99.1093C45.1626 98.4925 45.0844 98.14 45.1626 98.0519C45.2408 97.8756 45.2017 97.7434 45.0453 97.6553C45.0453 96.8622 45.0453 96.4216 45.0453 96.3335C45.1235 96.2454 45.1626 96.1132 45.1626 95.937C45.2408 94.7914 45.2799 94.1305 45.2799 93.9542C45.3581 93.6899 45.319 93.4696 45.1626 93.2933L45.6318 91.575C45.5536 90.9581 45.5536 90.5616 45.6318 90.3854C45.7882 90.121 45.8664 89.8566 45.8664 89.5923C45.71 88.7992 45.6318 88.3586 45.6318 88.2705C45.71 88.0942 45.7491 87.918 45.7491 87.7417C45.7491 86.8605 45.7882 86.3318 45.8664 86.1556C45.9446 85.9793 45.9837 85.8031 45.9837 85.6268C45.9055 84.9219 45.8664 84.5253 45.8664 84.4372C45.9446 84.3491 45.9837 84.261 45.9837 84.1729C45.9055 83.6441 45.8664 83.3357 45.8664 83.2476C45.9446 83.0713 45.9837 82.8951 45.9837 82.7189C45.9837 82.4545 45.9446 82.1461 45.8664 81.7936C45.8664 81.353 45.8664 80.9564 45.8664 80.604C45.8664 79.7228 45.8664 79.15 45.8664 78.8856C45.9446 78.6213 45.9837 78.3128 45.9837 77.9603C45.9055 77.1673 45.9055 76.6826 45.9837 76.5064C46.0619 76.3301 46.101 76.1539 46.101 75.9776C46.0228 74.6558 46.0228 73.8627 46.101 73.5984C46.0228 72.4528 45.9837 71.7478 45.9837 71.4835C46.0619 71.131 46.101 70.6904 46.101 70.1617C46.0228 69.1923 45.9837 68.6196 45.9837 68.4433C46.0619 68.2671 46.101 68.0908 46.101 67.9146C45.8664 66.5047 45.71 65.6675 45.6318 65.4032C45.6318 64.9625 45.5927 64.566 45.5145 64.2135C45.5145 63.7729 45.5536 63.3323 45.6318 62.8917C45.6318 61.9224 45.5927 61.2615 45.5145 60.909C45.4363 60.5565 45.4363 60.204 45.5145 59.8516C45.6709 58.9703 45.71 58.5297 45.6318 58.5297C45.6318 58.5297 45.6318 58.4857 45.6318 58.3976C45.6318 58.2213 45.6318 57.957 45.6318 57.6045C45.71 57.1639 45.7491 56.8554 45.7491 56.6792C45.5927 55.6218 45.5145 55.0049 45.5145 54.8287C45.5927 54.6524 45.5536 54.4762 45.3972 54.2999C45.3972 53.4187 45.3972 52.9781 45.3972 52.9781C45.4754 52.9781 45.5145 52.9341 45.5145 52.846C45.5145 51.9648 45.5536 51.392 45.6318 51.1276C45.71 50.7751 45.6709 50.4226 45.5145 50.0702C45.6709 49.2771 45.7491 48.3959 45.7491 47.4265L45.6318 45.8404C45.71 45.0473 45.71 44.4745 45.6318 44.122C45.6318 43.6814 45.6318 43.2408 45.6318 42.8002C45.4754 41.919 45.3972 41.4784 45.3972 41.4784C45.4754 41.4784 45.5145 41.4343 45.5145 41.3462C45.5145 40.9056 45.4754 40.5972 45.3972 40.4209C45.3972 40.1566 45.4363 39.9363 45.5145 39.76C45.6709 39.1432 45.71 38.7467 45.6318 38.5704C45.5536 38.306 45.5536 38.0857 45.6318 37.9095C45.5536 36.9402 45.5145 36.2793 45.5145 35.9268C45.4363 35.4862 45.3972 35.0015 45.3972 34.4728C45.3972 33.856 45.3972 33.3272 45.3972 32.8866C45.3972 32.446 45.4363 32.0495 45.5145 31.697C45.5927 31.3445 45.6318 30.948 45.6318 30.5074C45.71 29.4499 45.71 28.789 45.6318 28.5247C45.6318 28.2603 45.6318 28.04 45.6318 27.8638V22.18C45.5536 21.2106 45.5536 20.726 45.6318 20.726C45.71 20.726 45.71 20.6379 45.6318 20.4616C45.4754 19.7567 45.3972 19.272 45.3972 19.0076C45.4754 18.7433 45.4754 18.4789 45.3972 18.2145C45.319 17.3333 45.2408 16.8046 45.1626 16.6284C45.0844 16.364 45.0453 16.1437 45.0453 15.9675C44.9671 15.5269 44.928 15.0863 44.928 14.6457C45.0062 14.205 45.0453 13.7644 45.0453 13.3238C44.8889 12.3545 44.7716 11.8258 44.6934 11.7377C44.6934 11.6496 44.6934 11.5614 44.6934 11.4733C44.6934 10.4159 44.6543 9.79902 44.5761 9.62278C44.4979 9.44653 44.4588 9.27029 44.4588 9.09405C44.3806 8.74157 44.3415 8.43315 44.3415 8.16878C44.4197 7.8163 44.4588 7.50788 44.4588 7.24352C44.3024 6.45043 44.2242 6.00983 44.2242 5.92171C44.3024 5.83359 44.3024 5.70141 44.2242 5.52517C44.2242 5.17268 44.1851 4.95238 44.1069 4.86426C44.0286 4.68802 44.0286 4.3796 44.1069 3.93899C44.2633 3.23403 44.4197 2.79342 44.5761 2.61718C44.7325 2.44094 44.7716 2.22064 44.6934 1.95628C45.2408 1.42755 45.8664 0.986951 46.5703 0.634469C47.2741 0.281986 48.0561 0.281986 48.9164 0.634469C49.542 0.458227 49.933 0.414167 50.0894 0.502288C50.2458 0.590408 50.4413 0.634469 50.676 0.634469C51.6144 0.458227 52.1618 0.326046 52.3182 0.237926C53.1785 -0.0264362 53.6086 -0.0704965 53.6086 0.105745C53.6868 0.193865 53.8432 0.193865 54.0778 0.105745C54.7034 0.281986 55.0945 0.370107 55.2509 0.370107C55.4073 0.370107 55.5246 0.370107 55.6028 0.370107C55.9938 0.458227 56.3457 0.502288 56.6585 0.502288C56.9714 0.414167 57.2842 0.414167 57.597 0.502288C57.8316 0.590408 58.0662 0.722589 58.3008 0.898831C58.5354 0.986951 58.8482 0.942891 59.2393 0.76665C59.2393 0.942891 59.3957 1.07507 59.7085 1.16319C60.0995 1.25131 60.4123 1.20725 60.6469 1.03101C60.9597 1.20725 61.3117 1.29537 61.7027 1.29537C62.0937 1.20725 62.4847 1.25131 62.8757 1.42755Z" transform="translate(808 148) scale(2)" fill="white"/>
<path d="M33.95 33.55C33.95 35.0833 33.7167 36.4833 33.25 37.75C32.8167 38.9833 32.0167 40.05 30.85 40.95C29.7167 41.8167 28.1333 42.5 26.1 43C24.1 43.5 21.55 43.75 18.45 43.75C15.35 43.75 12.7833 43.5 10.75 43C8.71667 42.5 7.11667 41.8167 5.95 40.95C4.81667 40.05 4.01667 38.9833 3.55 37.75C3.11667 36.4833 2.9 35.0833 2.9 33.55V16.5C2.9 14.9667 3.11667 13.5833 3.55 12.35C4.01667 11.0833 4.81667 10 5.95 9.1C7.11667 8.2 8.71667 7.5 10.75 7C12.7833 6.5 15.35 6.25 18.45 6.25C21.55 6.25 24.1 6.5 26.1 7C28.1333 7.5 29.7167 8.2 30.85 9.1C32.0167 10 32.8167 11.0833 33.25 12.35C33.7167 13.5833 33.95 14.9667 33.95 16.5V33.55ZM14.25 31.75C14.25 32.4167 14.5 32.9833 15 33.45C15.5 33.8833 16.65 34.1 18.45 34.1C20.25 34.1 21.4 33.8833 21.9 33.45C22.4 32.9833 22.65 32.4167 22.65 31.75V18.3C22.65 17.6667 22.4 17.1333 21.9 16.7C21.4 16.2333 20.25 16 18.45 16C16.65 16 15.5 16.2333 15 16.7C14.5 17.1333 14.25 17.6667 14.25 18.3V31.75ZM51.3652 43H43.6152C42.9819 43 42.5152 42.8667 42.2152 42.6C41.9486 42.3 41.8152 41.8333 41.8152 41.2V8.8C41.8152 8.16667 41.9486 7.71667 42.2152 7.45C42.5152 7.15 42.9819 7 43.6152 7H51.3652C51.9986 7 52.4486 7.15 52.7152 7.45C53.0152 7.71667 53.1652 8.16667 53.1652 8.8V20.3H55.1652L60.3152 8.65C60.5486 8.05 60.8652 7.63333 61.2652 7.4C61.6652 7.13333 62.1819 7 62.8152 7H70.5152C71.0819 7 71.4652 7.15 71.6652 7.45C71.8652 7.71667 71.8486 8.11667 71.6152 8.65L66.5152 20.3C68.3819 20.4 69.8652 21.0667 70.9652 22.3C72.0986 23.5 72.6652 25.1 72.6652 27.1V41.2C72.6652 41.8333 72.5152 42.3 72.2152 42.6C71.9486 42.8667 71.4986 43 70.8652 43H63.1652C62.5319 43 62.0652 42.8667 61.7652 42.6C61.4986 42.3 61.3652 41.8333 61.3652 41.2V31.45C61.3652 30.9167 61.2319 30.5 60.9652 30.2C60.6986 29.9 60.2986 29.75 59.7652 29.75H53.1652V41.2C53.1652 41.8333 53.0152 42.3 52.7152 42.6C52.4486 42.8667 51.9986 43 51.3652 43ZM111.27 33.55C111.27 35.0833 111.037 36.4833 110.57 37.75C110.137 38.9833 109.337 40.05 108.17 40.95C107.037 41.8167 105.47 42.5 103.47 43C101.47 43.5 98.9199 43.75 95.8199 43.75C92.7199 43.75 90.1699 43.5 88.1699 43C86.1699 42.5 84.5866 41.8167 83.4199 40.95C82.2866 40.05 81.4866 38.9833 81.0199 37.75C80.5866 36.4833 80.3699 35.0833 80.3699 33.55V8.8C80.3699 8.16667 80.5033 7.71667 80.7699 7.45C81.0699 7.15 81.5366 7 82.1699 7H90.0199C90.6533 7 91.1033 7.15 91.3699 7.45C91.6699 7.71667 91.8199 8.16667 91.8199 8.8V31.6C91.8199 32.2667 92.0699 32.8333 92.5699 33.3C93.0699 33.7333 94.1866 33.95 95.9199 33.95C97.6866 33.95 98.8199 33.7333 99.3199 33.3C99.8199 32.8333 100.07 32.2667 100.07 31.6V8.8C100.07 8.16667 100.203 7.71667 100.47 7.45C100.77 7.15 101.237 7 101.87 7H109.47C110.103 7 110.553 7.15 110.82 7.45C111.12 7.71667 111.27 8.16667 111.27 8.8V33.55ZM128.725 43H121.225C120.591 43 120.125 42.8667 119.825 42.6C119.558 42.3 119.425 41.8333 119.425 41.2V8.8C119.425 8.16667 119.558 7.71667 119.825 7.45C120.125 7.15 120.591 7 121.225 7H126.425C127.058 7 127.591 7.1 128.025 7.3C128.491 7.5 128.941 7.85 129.375 8.35L139.075 19.45V8.8C139.075 8.16667 139.208 7.71667 139.475 7.45C139.775 7.15 140.241 7 140.875 7H148.375C149.008 7 149.458 7.15 149.725 7.45C150.025 7.71667 150.175 8.16667 150.175 8.8V41.2C150.175 41.8333 150.025 42.3 149.725 42.6C149.458 42.8667 149.008 43 148.375 43H140.875C140.241 43 139.775 42.8667 139.475 42.6C139.208 42.3 139.075 41.8333 139.075 41.2V35.05L130.525 24.7V41.2C130.525 41.8333 130.375 42.3 130.075 42.6C129.808 42.8667 129.358 43 128.725 43ZM189.071 33.55C189.071 35.0833 188.838 36.4833 188.371 37.75C187.938 38.9833 187.138 40.05 185.971 40.95C184.838 41.8167 183.254 42.5 181.221 43C179.221 43.5 176.671 43.75 173.571 43.75C170.471 43.75 167.904 43.5 165.871 43C163.838 42.5 162.238 41.8167 161.071 40.95C159.938 40.05 159.138 38.9833 158.671 37.75C158.238 36.4833 158.021 35.0833 158.021 33.55V16.5C158.021 14.9667 158.238 13.5833 158.671 12.35C159.138 11.0833 159.938 10 161.071 9.1C162.238 8.2 163.838 7.5 165.871 7C167.904 6.5 170.471 6.25 173.571 6.25C176.671 6.25 179.221 6.5 181.221 7C183.254 7.5 184.838 8.2 185.971 9.1C187.138 10 187.938 11.0833 188.371 12.35C188.838 13.5833 189.071 14.9667 189.071 16.5V33.55ZM169.371 31.75C169.371 32.4167 169.621 32.9833 170.121 33.45C170.621 33.8833 171.771 34.1 173.571 34.1C175.371 34.1 176.521 33.8833 177.021 33.45C177.521 32.9833 177.771 32.4167 177.771 31.75V18.3C177.771 17.6667 177.521 17.1333 177.021 16.7C176.521 16.2333 175.371 16 173.571 16C171.771 16 170.621 16.2333 170.121 16.7C169.621 17.1333 169.371 17.6667 169.371 18.3V31.75ZM224.186 43H198.736C198.103 43 197.636 42.8667 197.336 42.6C197.07 42.3 196.936 41.8333 196.936 41.2V8.8C196.936 8.16667 197.07 7.71667 197.336 7.45C197.636 7.15 198.103 7 198.736 7H206.486C207.12 7 207.57 7.15 207.836 7.45C208.136 7.71667 208.286 8.16667 208.286 8.8V33.55H215.136V25.45C215.136 24.8167 215.27 24.3667 215.536 24.1C215.836 23.8 216.303 23.65 216.936 23.65H224.186C224.82 23.65 225.27 23.8 225.536 24.1C225.836 24.3667 225.986 24.8167 225.986 25.45V41.2C225.986 41.8333 225.836 42.3 225.536 42.6C225.27 42.8667 224.82 43 224.186 43ZM246.252 17.5L243.902 25.1H251.752L249.402 17.5C249.269 17.2 249.119 16.9833 248.952 16.85C248.819 16.7167 248.652 16.65 248.452 16.65H247.202C247.002 16.65 246.819 16.7167 246.652 16.85C246.519 16.9833 246.385 17.2 246.252 17.5ZM243.402 41.2C243.402 41.8333 243.252 42.3 242.952 42.6C242.685 42.8667 242.235 43 241.602 43H234.252C233.619 43 233.152 42.8667 232.852 42.6C232.585 42.3 232.452 41.8333 232.452 41.2V28C232.452 27 232.602 25.85 232.902 24.55C233.235 23.25 233.735 21.7333 234.402 20L238.752 8.65C238.952 8.08333 239.252 7.66667 239.652 7.4C240.085 7.13333 240.635 7 241.302 7H254.752C255.385 7 255.902 7.13333 256.302 7.4C256.735 7.66667 257.052 8.08333 257.252 8.65L261.602 20C262.269 21.7333 262.752 23.25 263.052 24.55C263.385 25.85 263.552 27 263.552 28V41.2C263.552 41.8333 263.402 42.3 263.102 42.6C262.835 42.8667 262.385 43 261.752 43H254.202C253.535 43 253.035 42.8667 252.702 42.6C252.402 42.3 252.252 41.8333 252.252 41.2V34.2H243.402V41.2Z" transform="translate(226 212) scale(2)" fill="white"/>
<path d="M5.07 17H2.0475C1.8005 17 1.6185 16.948 1.5015 16.844C1.3975 16.727 1.3455 16.545 1.3455 16.298V3.662C1.3455 3.415 1.3975 3.2395 1.5015 3.1355C1.6185 3.0185 1.8005 2.96 2.0475 2.96H8.0145C9.7825 2.96 10.9915 3.311 11.6415 4.013C12.2915 4.715 12.6165 5.6315 12.6165 6.7625V9.2585C12.6165 10.3895 12.2915 11.306 11.6415 12.008C10.9915 12.71 9.7825 13.061 8.0145 13.061H5.772V16.298C5.772 16.545 5.7135 16.727 5.5965 16.844C5.4925 16.948 5.317 17 5.07 17ZM5.733 6.6065V9.551H7.488C7.865 9.551 8.112 9.4535 8.229 9.2585C8.346 9.0635 8.4045 8.8425 8.4045 8.5955V7.562C8.4045 7.315 8.346 7.094 8.229 6.899C8.112 6.704 7.865 6.6065 7.488 6.6065H5.733ZM19.5366 7.055L18.6201 10.019H21.6816L20.7651 7.055C20.7131 6.938 20.6546 6.8535 20.5896 6.8015C20.5376 6.7495 20.4726 6.7235 20.3946 6.7235H19.9071C19.8291 6.7235 19.7576 6.7495 19.6926 6.8015C19.6406 6.8535 19.5886 6.938 19.5366 7.055ZM18.4251 16.298C18.4251 16.545 18.3666 16.727 18.2496 16.844C18.1456 16.948 17.9701 17 17.7231 17H14.8566C14.6096 17 14.4276 16.948 14.3106 16.844C14.2066 16.727 14.1546 16.545 14.1546 16.298V11.15C14.1546 10.76 14.2131 10.3115 14.3301 9.8045C14.4601 9.2975 14.6551 8.706 14.9151 8.03L16.6116 3.6035C16.6896 3.3825 16.8066 3.22 16.9626 3.116C17.1316 3.012 17.3461 2.96 17.6061 2.96H22.8516C23.0986 2.96 23.3001 3.012 23.4561 3.116C23.6251 3.22 23.7486 3.3825 23.8266 3.6035L25.5231 8.03C25.7831 8.706 25.9716 9.2975 26.0886 9.8045C26.2186 10.3115 26.2836 10.76 26.2836 11.15V16.298C26.2836 16.545 26.2251 16.727 26.1081 16.844C26.0041 16.948 25.8286 17 25.5816 17H22.6371C22.3771 17 22.1821 16.948 22.0521 16.844C21.9351 16.727 21.8766 16.545 21.8766 16.298V13.568H18.4251V16.298ZM33.0982 6.47V8.966H34.5607C34.8987 8.966 35.1262 8.8815 35.2432 8.7125C35.3602 8.5305 35.4187 8.3095 35.4187 8.0495V7.3865C35.4187 7.1265 35.3602 6.912 35.2432 6.743C35.1262 6.561 34.8987 6.47 34.5607 6.47H33.0982ZM32.3962 17H29.3932C29.1462 17 28.9642 16.948 28.8472 16.844C28.7432 16.727 28.6912 16.545 28.6912 16.298V3.662C28.6912 3.415 28.7432 3.2395 28.8472 3.1355C28.9642 3.0185 29.1462 2.96 29.3932 2.96H35.8867C37.3427 2.96 38.3437 3.2655 38.8897 3.8765C39.4487 4.4745 39.7282 5.2545 39.7282 6.2165V7.1135C39.7282 7.6595 39.6437 8.1275 39.4747 8.5175C39.3187 8.8945 39.0392 9.1675 38.6362 9.3365C39.3382 9.4145 39.9037 9.7005 40.3327 10.1945C40.7747 10.6885 40.9957 11.345 40.9957 12.164V16.298C40.9957 16.545 40.9372 16.727 40.8202 16.844C40.7162 16.948 40.5407 17 40.2937 17H37.2712C37.0242 17 36.8422 16.948 36.7252 16.844C36.6212 16.727 36.5692 16.545 36.5692 16.298V13.3145C36.5692 13.0285 36.5107 12.8205 36.3937 12.6905C36.2897 12.5475 36.1012 12.476 35.8282 12.476H33.0982V16.298C33.0982 16.545 33.0397 16.727 32.9227 16.844C32.8187 16.948 32.6432 17 32.3962 17ZM46.9074 17H43.8849C43.6379 17 43.4559 16.948 43.3389 16.844C43.2349 16.727 43.1829 16.545 43.1829 16.298V3.662C43.1829 3.415 43.2349 3.2395 43.3389 3.1355C43.4559 3.0185 43.6379 2.96 43.8849 2.96H46.9074C47.1544 2.96 47.3299 3.0185 47.4339 3.1355C47.5509 3.2395 47.6094 3.415 47.6094 3.662V8.147H48.3894L50.3979 3.6035C50.4889 3.3695 50.6124 3.207 50.7684 3.116C50.9244 3.012 51.1259 2.96 51.3729 2.96H54.3759C54.5969 2.96 54.7464 3.0185 54.8244 3.1355C54.9024 3.2395 54.8959 3.3955 54.8049 3.6035L52.8159 8.147C53.5439 8.186 54.1224 8.446 54.5514 8.927C54.9934 9.395 55.2144 10.019 55.2144 10.799V16.298C55.2144 16.545 55.1559 16.727 55.0389 16.844C54.9349 16.948 54.7594 17 54.5124 17H51.5094C51.2624 17 51.0804 16.948 50.9634 16.844C50.8594 16.727 50.8074 16.545 50.8074 16.298V12.4955C50.8074 12.2875 50.7554 12.125 50.6514 12.008C50.5474 11.891 50.3914 11.8325 50.1834 11.8325H47.6094V16.298C47.6094 16.545 47.5509 16.727 47.4339 16.844C47.3299 16.948 47.1544 17 46.9074 17ZM59.9157 18.95H58.4142C58.1672 18.95 57.9852 18.8915 57.8682 18.7745C57.7642 18.6705 57.7122 18.495 57.7122 18.248V17.468C57.7122 17.221 57.7642 17.0455 57.8682 16.9415C57.9852 16.8245 58.1672 16.766 58.4142 16.766H59.7597C59.9287 16.766 60.0587 16.7205 60.1497 16.6295C60.2407 16.5255 60.2862 16.389 60.2862 16.22V15.9275H58.1607C57.9137 15.9275 57.7317 15.8755 57.6147 15.7715C57.5107 15.6545 57.4587 15.4725 57.4587 15.2255V12.3395C57.4587 12.0925 57.5107 11.917 57.6147 11.813C57.7317 11.696 57.9137 11.6375 58.1607 11.6375H62.0997C62.3467 11.6375 62.5222 11.696 62.6262 11.813C62.7432 11.917 62.8017 12.0925 62.8017 12.3395V16.0055C62.8017 16.9935 62.5352 17.728 62.0022 18.209C61.4822 18.703 60.7867 18.95 59.9157 18.95ZM77.6169 17H72.5469C72.2999 17 72.0919 16.9545 71.9229 16.8635C71.7669 16.7725 71.6434 16.6035 71.5524 16.3565L69.6414 11.579C69.5244 11.293 69.4269 11.046 69.3489 10.838C69.2709 10.617 69.2059 10.409 69.1539 10.214C69.1019 10.019 69.0629 9.8175 69.0369 9.6095C69.0239 9.3885 69.0174 9.122 69.0174 8.81V3.662C69.0174 3.415 69.0694 3.2395 69.1734 3.1355C69.2904 3.0185 69.4724 2.96 69.7194 2.96H72.8199C73.0669 2.96 73.2554 3.0185 73.3854 3.1355C73.5154 3.2395 73.5804 3.415 73.5804 3.662V9.044C73.5804 9.174 73.5934 9.304 73.6194 9.434C73.6454 9.564 73.6844 9.7005 73.7364 9.8435L74.6529 12.5735C74.6919 12.7035 74.7374 12.7945 74.7894 12.8465C74.8414 12.8855 74.9194 12.905 75.0234 12.905H75.2379C75.3419 12.905 75.4199 12.8855 75.4719 12.8465C75.5239 12.7945 75.5694 12.7035 75.6084 12.5735L76.5249 9.824C76.5769 9.681 76.6159 9.5445 76.6419 9.4145C76.6679 9.2845 76.6809 9.1545 76.6809 9.0245V3.662C76.6809 3.415 76.7329 3.2395 76.8369 3.1355C76.9539 3.0185 77.1359 2.96 77.3829 2.96H80.4444C80.6914 2.96 80.8669 3.0185 80.9709 3.1355C81.0879 3.2395 81.1464 3.415 81.1464 3.662V8.81C81.1464 9.122 81.1334 9.3885 81.1074 9.6095C81.0944 9.8175 81.0619 10.019 81.0099 10.214C80.9579 10.409 80.8929 10.617 80.8149 10.838C80.7369 11.046 80.6394 11.293 80.5224 11.579L78.6114 16.3565C78.5204 16.6035 78.3904 16.7725 78.2214 16.8635C78.0654 16.9545 77.8639 17 77.6169 17ZM83.944 17C83.697 17 83.515 16.948 83.398 16.844C83.294 16.727 83.242 16.545 83.242 16.298V13.9775C83.242 13.7305 83.294 13.555 83.398 13.451C83.515 13.334 83.697 13.2755 83.944 13.2755H85.8745V6.7235H83.944C83.697 6.7235 83.515 6.6715 83.398 6.5675C83.294 6.4505 83.242 6.2685 83.242 6.0215V3.662C83.242 3.415 83.294 3.2395 83.398 3.1355C83.515 3.0185 83.697 2.96 83.944 2.96H92.251C92.498 2.96 92.6735 3.0185 92.7775 3.1355C92.8945 3.2395 92.953 3.415 92.953 3.662V6.0215C92.953 6.2685 92.8945 6.4505 92.7775 6.5675C92.6735 6.6715 92.498 6.7235 92.251 6.7235H90.3595V13.2755H92.251C92.498 13.2755 92.6735 13.334 92.7775 13.451C92.8945 13.555 92.953 13.7305 92.953 13.9775V16.298C92.953 16.545 92.8945 16.727 92.7775 16.844C92.6735 16.948 92.498 17 92.251 17H83.944ZM104.701 17H99.9431C98.3181 17 97.1091 16.675 96.3161 16.025C95.5361 15.375 95.1461 14.374 95.1461 13.022V6.9575C95.1461 5.6055 95.5361 4.6045 96.3161 3.9545C97.1091 3.2915 98.3181 2.96 99.9431 2.96H104.701C104.948 2.96 105.124 3.0185 105.228 3.1355C105.345 3.2395 105.403 3.415 105.403 3.662V6.0215C105.403 6.2685 105.345 6.4505 105.228 6.5675C105.124 6.6715 104.948 6.7235 104.701 6.7235H100.782C100.379 6.7235 100.08 6.808 99.8846 6.977C99.6896 7.133 99.5921 7.3735 99.5921 7.6985V12.3395C99.5921 12.6645 99.6896 12.905 99.8846 13.061C100.08 13.204 100.379 13.2755 100.782 13.2755H104.701C104.948 13.2755 105.124 13.334 105.228 13.451C105.345 13.555 105.403 13.7305 105.403 13.9775V16.298C105.403 16.545 105.345 16.727 105.228 16.844C105.124 16.948 104.948 17 104.701 17ZM114.235 17H111.076C110.829 17 110.647 16.948 110.53 16.844C110.426 16.727 110.374 16.545 110.374 16.298V6.7235H107.508C107.261 6.7235 107.079 6.6715 106.962 6.5675C106.858 6.4505 106.806 6.2685 106.806 6.0215V3.662C106.806 3.415 106.858 3.2395 106.962 3.1355C107.079 3.0185 107.261 2.96 107.508 2.96H117.804C118.051 2.96 118.226 3.0185 118.33 3.1355C118.447 3.2395 118.506 3.415 118.506 3.662V6.0215C118.506 6.2685 118.447 6.4505 118.33 6.5675C118.226 6.6715 118.051 6.7235 117.804 6.7235H114.937V16.298C114.937 16.545 114.879 16.727 114.762 16.844C114.658 16.948 114.482 17 114.235 17ZM132.202 13.3145C132.202 13.9125 132.111 14.4585 131.929 14.9525C131.76 15.4335 131.448 15.8495 130.993 16.2005C130.551 16.5385 129.933 16.805 129.14 17C128.36 17.195 127.366 17.2925 126.157 17.2925C124.948 17.2925 123.947 17.195 123.154 17C122.361 16.805 121.737 16.5385 121.282 16.2005C120.84 15.8495 120.528 15.4335 120.346 14.9525C120.177 14.4585 120.092 13.9125 120.092 13.3145V6.665C120.092 6.067 120.177 5.5275 120.346 5.0465C120.528 4.5525 120.84 4.13 121.282 3.779C121.737 3.428 122.361 3.155 123.154 2.96C123.947 2.765 124.948 2.6675 126.157 2.6675C127.366 2.6675 128.36 2.765 129.14 2.96C129.933 3.155 130.551 3.428 130.993 3.779C131.448 4.13 131.76 4.5525 131.929 5.0465C132.111 5.5275 132.202 6.067 132.202 6.665V13.3145ZM124.519 12.6125C124.519 12.8725 124.616 13.0935 124.811 13.2755C125.006 13.4445 125.455 13.529 126.157 13.529C126.859 13.529 127.307 13.4445 127.502 13.2755C127.697 13.0935 127.795 12.8725 127.795 12.6125V7.367C127.795 7.12 127.697 6.912 127.502 6.743C127.307 6.561 126.859 6.47 126.157 6.47C125.455 6.47 125.006 6.561 124.811 6.743C124.616 6.912 124.519 7.12 124.519 7.367V12.6125ZM139.091 6.47V8.966H140.554C140.892 8.966 141.119 8.8815 141.236 8.7125C141.353 8.5305 141.412 8.3095 141.412 8.0495V7.3865C141.412 7.1265 141.353 6.912 141.236 6.743C141.119 6.561 140.892 6.47 140.554 6.47H139.091ZM138.389 17H135.386C135.139 17 134.957 16.948 134.84 16.844C134.736 16.727 134.684 16.545 134.684 16.298V3.662C134.684 3.415 134.736 3.2395 134.84 3.1355C134.957 3.0185 135.139 2.96 135.386 2.96H141.88C143.336 2.96 144.337 3.2655 144.883 3.8765C145.442 4.4745 145.721 5.2545 145.721 6.2165V7.1135C145.721 7.6595 145.637 8.1275 145.468 8.5175C145.312 8.8945 145.032 9.1675 144.629 9.3365C145.331 9.4145 145.897 9.7005 146.326 10.1945C146.768 10.6885 146.989 11.345 146.989 12.164V16.298C146.989 16.545 146.93 16.727 146.813 16.844C146.709 16.948 146.534 17 146.287 17H143.264C143.017 17 142.835 16.948 142.718 16.844C142.614 16.727 142.562 16.545 142.562 16.298V13.3145C142.562 13.0285 142.504 12.8205 142.387 12.6905C142.283 12.5475 142.094 12.476 141.821 12.476H139.091V16.298C139.091 16.545 139.033 16.727 138.916 16.844C138.812 16.948 138.636 17 138.389 17ZM149.566 17C149.319 17 149.137 16.948 149.02 16.844C148.916 16.727 148.864 16.545 148.864 16.298V13.9775C148.864 13.7305 148.916 13.555 149.02 13.451C149.137 13.334 149.319 13.2755 149.566 13.2755H151.497V6.7235H149.566C149.319 6.7235 149.137 6.6715 149.02 6.5675C148.916 6.4505 148.864 6.2685 148.864 6.0215V3.662C148.864 3.415 148.916 3.2395 149.02 3.1355C149.137 3.0185 149.319 2.96 149.566 2.96H157.873C158.12 2.96 158.296 3.0185 158.4 3.1355C158.517 3.2395 158.575 3.415 158.575 3.662V6.0215C158.575 6.2685 158.517 6.4505 158.4 6.5675C158.296 6.6715 158.12 6.7235 157.873 6.7235H155.982V13.2755H157.873C158.12 13.2755 158.296 13.334 158.4 13.451C158.517 13.555 158.575 13.7305 158.575 13.9775V16.298C158.575 16.545 158.517 16.727 158.4 16.844C158.296 16.948 158.12 17 157.873 17H149.566ZM166.072 7.055L165.156 10.019H168.217L167.301 7.055C167.249 6.938 167.19 6.8535 167.125 6.8015C167.073 6.7495 167.008 6.7235 166.93 6.7235H166.443C166.365 6.7235 166.293 6.7495 166.228 6.8015C166.176 6.8535 166.124 6.938 166.072 7.055ZM164.961 16.298C164.961 16.545 164.902 16.727 164.785 16.844C164.681 16.948 164.506 17 164.259 17H161.392C161.145 17 160.963 16.948 160.846 16.844C160.742 16.727 160.69 16.545 160.69 16.298V11.15C160.69 10.76 160.749 10.3115 160.866 9.8045C160.996 9.2975 161.191 8.706 161.451 8.03L163.147 3.6035C163.225 3.3825 163.342 3.22 163.498 3.116C163.667 3.012 163.882 2.96 164.142 2.96H169.387C169.634 2.96 169.836 3.012 169.992 3.116C170.161 3.22 170.284 3.3825 170.362 3.6035L172.059 8.03C172.319 8.706 172.507 9.2975 172.624 9.8045C172.754 10.3115 172.819 10.76 172.819 11.15V16.298C172.819 16.545 172.761 16.727 172.644 16.844C172.54 16.948 172.364 17 172.117 17H169.173C168.913 17 168.718 16.948 168.588 16.844C168.471 16.727 168.412 16.545 168.412 16.298V13.568H164.961V16.298ZM179.902 17C179.655 17 179.473 16.948 179.356 16.844C179.252 16.727 179.2 16.545 179.2 16.298V13.9775C179.2 13.7305 179.252 13.555 179.356 13.451C179.473 13.334 179.655 13.2755 179.902 13.2755H181.832V6.7235H179.902C179.655 6.7235 179.473 6.6715 179.356 6.5675C179.252 6.4505 179.2 6.2685 179.2 6.0215V3.662C179.2 3.415 179.252 3.2395 179.356 3.1355C179.473 3.0185 179.655 2.96 179.902 2.96H188.209C188.456 2.96 188.631 3.0185 188.735 3.1355C188.852 3.2395 188.911 3.415 188.911 3.662V6.0215C188.911 6.2685 188.852 6.4505 188.735 6.5675C188.631 6.6715 188.456 6.7235 188.209 6.7235H186.317V13.2755H188.209C188.456 13.2755 188.631 13.334 188.735 13.451C188.852 13.555 188.911 13.7305 188.911 13.9775V16.298C188.911 16.545 188.852 16.727 188.735 16.844C188.631 16.948 188.456 17 188.209 17H179.902ZM197.831 17H191.669C191.422 17 191.24 16.948 191.123 16.844C191.019 16.727 190.967 16.545 190.967 16.298V14.0165C190.967 13.7695 191.019 13.594 191.123 13.49C191.24 13.373 191.422 13.3145 191.669 13.3145H196.915C197.084 13.3145 197.207 13.2625 197.285 13.1585C197.376 13.0415 197.422 12.905 197.422 12.749C197.422 12.528 197.376 12.3655 197.285 12.2615C197.207 12.1575 197.084 12.099 196.915 12.086L193.99 11.6765C193.08 11.5465 192.345 11.2475 191.786 10.7795C191.24 10.3115 190.967 9.5315 190.967 8.4395V6.392C190.967 5.287 191.325 4.442 192.04 3.857C192.755 3.259 193.743 2.96 195.004 2.96H200.464C200.711 2.96 200.886 3.0185 200.99 3.1355C201.107 3.2395 201.166 3.415 201.166 3.662V5.9825C201.166 6.2295 201.107 6.4115 200.99 6.5285C200.886 6.6325 200.711 6.6845 200.464 6.6845H195.92C195.751 6.6845 195.621 6.743 195.53 6.86C195.439 6.964 195.394 7.1005 195.394 7.2695C195.394 7.4385 195.439 7.5815 195.53 7.6985C195.621 7.8155 195.751 7.8805 195.92 7.8935L198.826 8.2835C199.736 8.4135 200.47 8.7125 201.029 9.1805C201.588 9.6485 201.868 10.4285 201.868 11.5205V13.568C201.868 14.673 201.504 15.5245 200.776 16.1225C200.061 16.7075 199.079 17 197.831 17ZM214.628 17H204.703C204.456 17 204.274 16.948 204.157 16.844C204.053 16.727 204.001 16.545 204.001 16.298V3.662C204.001 3.415 204.053 3.2395 204.157 3.1355C204.274 3.0185 204.456 2.96 204.703 2.96H207.725C207.972 2.96 208.148 3.0185 208.252 3.1355C208.369 3.2395 208.427 3.415 208.427 3.662V13.3145H211.099V10.1555C211.099 9.9085 211.151 9.733 211.255 9.629C211.372 9.512 211.554 9.4535 211.801 9.4535H214.628C214.875 9.4535 215.051 9.512 215.155 9.629C215.272 9.733 215.33 9.9085 215.33 10.1555V16.298C215.33 16.545 215.272 16.727 215.155 16.844C215.051 16.948 214.875 17 214.628 17ZM222.649 7.055L221.732 10.019H224.794L223.877 7.055C223.825 6.938 223.767 6.8535 223.702 6.8015C223.65 6.7495 223.585 6.7235 223.507 6.7235H223.019C222.941 6.7235 222.87 6.7495 222.805 6.8015C222.753 6.8535 222.701 6.938 222.649 7.055ZM221.537 16.298C221.537 16.545 221.479 16.727 221.362 16.844C221.258 16.948 221.082 17 220.835 17H217.969C217.722 17 217.54 16.948 217.423 16.844C217.319 16.727 217.267 16.545 217.267 16.298V11.15C217.267 10.76 217.325 10.3115 217.442 9.8045C217.572 9.2975 217.767 8.706 218.027 8.03L219.724 3.6035C219.802 3.3825 219.919 3.22 220.075 3.116C220.244 3.012 220.458 2.96 220.718 2.96H225.964C226.211 2.96 226.412 3.012 226.568 3.116C226.737 3.22 226.861 3.3825 226.939 3.6035L228.635 8.03C228.895 8.706 229.084 9.2975 229.201 9.8045C229.331 10.3115 229.396 10.76 229.396 11.15V16.298C229.396 16.545 229.337 16.727 229.22 16.844C229.116 16.948 228.941 17 228.694 17H225.749C225.489 17 225.294 16.948 225.164 16.844C225.047 16.727 224.989 16.545 224.989 16.298V13.568H221.537V16.298ZM235.431 17H232.506C232.259 17 232.077 16.948 231.96 16.844C231.856 16.727 231.804 16.545 231.804 16.298V3.662C231.804 3.415 231.856 3.2395 231.96 3.1355C232.077 3.0185 232.259 2.96 232.506 2.96H234.534C234.781 2.96 234.989 2.999 235.158 3.077C235.34 3.155 235.515 3.2915 235.684 3.4865L239.467 7.8155V3.662C239.467 3.415 239.519 3.2395 239.623 3.1355C239.74 3.0185 239.922 2.96 240.169 2.96H243.094C243.341 2.96 243.517 3.0185 243.621 3.1355C243.738 3.2395 243.796 3.415 243.796 3.662V16.298C243.796 16.545 243.738 16.727 243.621 16.844C243.517 16.948 243.341 17 243.094 17H240.169C239.922 17 239.74 16.948 239.623 16.844C239.519 16.727 239.467 16.545 239.467 16.298V13.8995L236.133 9.863V16.298C236.133 16.545 236.074 16.727 235.957 16.844C235.853 16.948 235.678 17 235.431 17ZM253.759 17H247.188C246.941 17 246.759 16.948 246.642 16.844C246.538 16.727 246.486 16.545 246.486 16.298V3.662C246.486 3.415 246.538 3.2395 246.642 3.1355C246.759 3.0185 246.941 2.96 247.188 2.96H253.759C255.384 2.96 256.587 3.285 257.367 3.935C258.16 4.585 258.556 5.586 258.556 6.938V13.022C258.556 14.374 258.16 15.375 257.367 16.025C256.587 16.675 255.384 17 253.759 17ZM250.912 6.6845V13.3145H253.233C253.545 13.3145 253.772 13.2365 253.915 13.0805C254.071 12.9245 254.149 12.684 254.149 12.359V7.6205C254.149 7.2955 254.071 7.0615 253.915 6.9185C253.772 6.7625 253.545 6.6845 253.233 6.6845H250.912ZM263.218 18.95H261.717C261.47 18.95 261.288 18.8915 261.171 18.7745C261.067 18.6705 261.015 18.495 261.015 18.248V17.468C261.015 17.221 261.067 17.0455 261.171 16.9415C261.288 16.8245 261.47 16.766 261.717 16.766H263.062C263.231 16.766 263.361 16.7205 263.452 16.6295C263.543 16.5255 263.589 16.389 263.589 16.22V15.9275H261.463C261.216 15.9275 261.034 15.8755 260.917 15.7715C260.813 15.6545 260.761 15.4725 260.761 15.2255V12.3395C260.761 12.0925 260.813 11.917 260.917 11.813C261.034 11.696 261.216 11.6375 261.463 11.6375H265.402C265.649 11.6375 265.825 11.696 265.929 11.813C266.046 11.917 266.104 12.0925 266.104 12.3395V16.0055C266.104 16.9935 265.838 17.728 265.305 18.209C264.785 18.703 264.089 18.95 263.218 18.95ZM11.973 40H2.0475C1.8005 40 1.6185 39.948 1.5015 39.844C1.3975 39.727 1.3455 39.545 1.3455 39.298V26.662C1.3455 26.415 1.3975 26.2395 1.5015 26.1355C1.6185 26.0185 1.8005 25.96 2.0475 25.96H5.07C5.317 25.96 5.4925 26.0185 5.5965 26.1355C5.7135 26.2395 5.772 26.415 5.772 26.662V36.3145H8.4435V33.1555C8.4435 32.9085 8.4955 32.733 8.5995 32.629C8.7165 32.512 8.8985 32.4535 9.1455 32.4535H11.973C12.22 32.4535 12.3955 32.512 12.4995 32.629C12.6165 32.733 12.675 32.9085 12.675 33.1555V39.298C12.675 39.545 12.6165 39.727 12.4995 39.844C12.3955 39.948 12.22 40 11.973 40ZM19.9936 30.055L19.0771 33.019H22.1386L21.2221 30.055C21.1701 29.938 21.1116 29.8535 21.0466 29.8015C20.9946 29.7495 20.9296 29.7235 20.8516 29.7235H20.3641C20.2861 29.7235 20.2146 29.7495 20.1496 29.8015C20.0976 29.8535 20.0456 29.938 19.9936 30.055ZM18.8821 39.298C18.8821 39.545 18.8236 39.727 18.7066 39.844C18.6026 39.948 18.4271 40 18.1801 40H15.3136C15.0666 40 14.8846 39.948 14.7676 39.844C14.6636 39.727 14.6116 39.545 14.6116 39.298V34.15C14.6116 33.76 14.6701 33.3115 14.7871 32.8045C14.9171 32.2975 15.1121 31.706 15.3721 31.03L17.0686 26.6035C17.1466 26.3825 17.2636 26.22 17.4196 26.116C17.5886 26.012 17.8031 25.96 18.0631 25.96H23.3086C23.5556 25.96 23.7571 26.012 23.9131 26.116C24.0821 26.22 24.2056 26.3825 24.2836 26.6035L25.9801 31.03C26.2401 31.706 26.4286 32.2975 26.5456 32.8045C26.6756 33.3115 26.7406 33.76 26.7406 34.15V39.298C26.7406 39.545 26.6821 39.727 26.5651 39.844C26.4611 39.948 26.2856 40 26.0386 40H23.0941C22.8341 40 22.6391 39.948 22.5091 39.844C22.3921 39.727 22.3336 39.545 22.3336 39.298V36.568H18.8821V39.298ZM39.8732 40H33.7307C32.1057 40 30.8967 39.675 30.1037 39.025C29.3237 38.375 28.9337 37.374 28.9337 36.022V29.938C28.9337 28.586 29.3237 27.585 30.1037 26.935C30.8967 26.285 32.1057 25.96 33.7307 25.96H38.6057C38.8527 25.96 39.0282 26.0185 39.1322 26.1355C39.2492 26.2395 39.3077 26.415 39.3077 26.662V29.0215C39.3077 29.2685 39.2492 29.4505 39.1322 29.5675C39.0282 29.6715 38.8527 29.7235 38.6057 29.7235H34.5497C34.1467 29.7235 33.8477 29.808 33.6527 29.977C33.4577 30.133 33.3602 30.3735 33.3602 30.6985V35.359C33.3602 35.684 33.4317 35.9245 33.5747 36.0805C33.7307 36.2365 33.9582 36.3145 34.2572 36.3145H36.1487V33.2725C36.1487 33.0255 36.2007 32.85 36.3047 32.746C36.4217 32.629 36.6037 32.5705 36.8507 32.5705H39.8732C40.1202 32.5705 40.2957 32.629 40.3997 32.746C40.5167 32.85 40.5752 33.0255 40.5752 33.2725V39.298C40.5752 39.545 40.5167 39.727 40.3997 39.844C40.2957 39.948 40.1202 40 39.8732 40ZM54.8494 36.3145C54.8494 36.9125 54.7584 37.4585 54.5764 37.9525C54.4074 38.4335 54.0954 38.8495 53.6404 39.2005C53.1984 39.5385 52.5809 39.805 51.7879 40C51.0079 40.195 50.0134 40.2925 48.8044 40.2925C47.5954 40.2925 46.5944 40.195 45.8014 40C45.0084 39.805 44.3844 39.5385 43.9294 39.2005C43.4874 38.8495 43.1754 38.4335 42.9934 37.9525C42.8244 37.4585 42.7399 36.9125 42.7399 36.3145V29.665C42.7399 29.067 42.8244 28.5275 42.9934 28.0465C43.1754 27.5525 43.4874 27.13 43.9294 26.779C44.3844 26.428 45.0084 26.155 45.8014 25.96C46.5944 25.765 47.5954 25.6675 48.8044 25.6675C50.0134 25.6675 51.0079 25.765 51.7879 25.96C52.5809 26.155 53.1984 26.428 53.6404 26.779C54.0954 27.13 54.4074 27.5525 54.5764 28.0465C54.7584 28.5275 54.8494 29.067 54.8494 29.665V36.3145ZM47.1664 35.6125C47.1664 35.8725 47.2639 36.0935 47.4589 36.2755C47.6539 36.4445 48.1024 36.529 48.8044 36.529C49.5064 36.529 49.9549 36.4445 50.1499 36.2755C50.3449 36.0935 50.4424 35.8725 50.4424 35.6125V30.367C50.4424 30.12 50.3449 29.912 50.1499 29.743C49.9549 29.561 49.5064 29.47 48.8044 29.47C48.1024 29.47 47.6539 29.561 47.4589 29.743C47.2639 29.912 47.1664 30.12 47.1664 30.367V35.6125ZM63.8448 40H57.6828C57.4358 40 57.2538 39.948 57.1368 39.844C57.0328 39.727 56.9808 39.545 56.9808 39.298V37.0165C56.9808 36.7695 57.0328 36.594 57.1368 36.49C57.2538 36.373 57.4358 36.3145 57.6828 36.3145H62.9283C63.0973 36.3145 63.2208 36.2625 63.2988 36.1585C63.3898 36.0415 63.4353 35.905 63.4353 35.749C63.4353 35.528 63.3898 35.3655 63.2988 35.2615C63.2208 35.1575 63.0973 35.099 62.9283 35.086L60.0033 34.6765C59.0933 34.5465 58.3588 34.2475 57.7998 33.7795C57.2538 33.3115 56.9808 32.5315 56.9808 31.4395V29.392C56.9808 28.287 57.3383 27.442 58.0533 26.857C58.7683 26.259 59.7563 25.96 61.0173 25.96H66.4773C66.7243 25.96 66.8998 26.0185 67.0038 26.1355C67.1208 26.2395 67.1793 26.415 67.1793 26.662V28.9825C67.1793 29.2295 67.1208 29.4115 67.0038 29.5285C66.8998 29.6325 66.7243 29.6845 66.4773 29.6845H61.9338C61.7648 29.6845 61.6348 29.743 61.5438 29.86C61.4528 29.964 61.4073 30.1005 61.4073 30.2695C61.4073 30.4385 61.4528 30.5815 61.5438 30.6985C61.6348 30.8155 61.7648 30.8805 61.9338 30.8935L64.8393 31.2835C65.7493 31.4135 66.4838 31.7125 67.0428 32.1805C67.6018 32.6485 67.8813 33.4285 67.8813 34.5205V36.568C67.8813 37.673 67.5173 38.5245 66.7893 39.1225C66.0743 39.7075 65.0928 40 63.8448 40Z" transform="translate(226 316) scale(2)" fill="white"/>
</svg>
